<svg height="512" viewBox="0 0 128 128" width="512" xmlns="http://www.w3.org/2000/svg"><g><path d="m87.371 23.835a64.012 64.012 0 0 1 -48.393 7.771v8.963a22.243 22.243 0 0 0 .5 4.675l1.509 6.891c.788 3.611 1.317 7.464 2.71 10.9a21.93 21.93 0 0 0 40.606 0c1.393-3.438 1.922-7.291 2.709-10.9l1.51-6.891c.331-1.539.5-3.107.5-11.68v-10.747z" fill="#fde4e4"/><g fill="#596c76"><path d="m38.05 39.19a6.9 6.9 0 0 1 .926.07v1.306a21.889 21.889 0 0 0 .308 3.642 22.1 22.1 0 0 1 -.306-3.639v-8.963a64.012 64.012 0 0 0 48.393-7.771l1.651-1.018v10.747c0 6.166-.088 8.7-.261 10.217a21.762 21.762 0 0 0 .261-3.212v-1.328a6.3 6.3 0 0 1 .678-.051 6.786 6.786 0 0 1 4.8 1.981v-8.923a30.5 30.5 0 0 0 -61 0v8.7a6.78 6.78 0 0 1 4.55-1.758z"/><path d="m94.45 50.873a6.739 6.739 0 0 1 -7.458 1.358c-.776 3.584-1.309 7.4-2.689 10.806a21.872 21.872 0 0 1 -7.303 9.355l1.1 8.576a6.753 6.753 0 0 0 .769 2.333 7.716 7.716 0 0 0 .685 1.053c1.972 2.57 4.821 2.677 7.247 3.021 2.145.237 4.325.353 6.439.538a54.99 54.99 0 0 1 9.764 1.3 22.422 22.422 0 0 1 11.621 7.687v-8.31a21.561 21.561 0 0 0 -10.088-18.255 21.559 21.559 0 0 1 -10.087-18.251z"/><path d="m25 89.217c5.453-1.491 11.249-1.3 16.859-1.948a8.366 8.366 0 0 0 6.557-2.928 6.882 6.882 0 0 0 1.489-3.373l1.095-8.576a21.878 21.878 0 0 1 -7.3-9.355c-1.393-3.438-1.922-7.291-2.71-10.9l-.771-3.525.769 3.527a6.768 6.768 0 0 1 -7.438-1.039v.983a21.558 21.558 0 0 1 -10.088 18.255 21.562 21.562 0 0 0 -10.087 18.255v8.307a22.422 22.422 0 0 1 11.625-7.683z"/></g><path d="m39.481 45.243a21.885 21.885 0 0 1 -.505-4.677v-1.306a6.9 6.9 0 0 0 -.926-.07 6.81 6.81 0 1 0 2.935 12.947z" fill="#fcced3"/><g fill="#596c76"><path d="m64.249 53.4h1.958a1.75 1.75 0 0 0 0-3.5h-1.877l.7-4.608a1.75 1.75 0 1 0 -3.461-.523l-.709 4.686a3.43 3.43 0 0 0 3.389 3.945z"/><path d="m57.166 40.418a4.167 4.167 0 1 0 -4.166 4.167 4.171 4.171 0 0 0 4.166-4.167z"/><path d="m75 36.252a4.167 4.167 0 1 0 4.167 4.166 4.171 4.171 0 0 0 -4.167-4.166z"/><path d="m69.2 57.933a6.987 6.987 0 0 1 -5.325 2.067 6.987 6.987 0 0 1 -5.326-2.07 1.749 1.749 0 1 0 -2.7 2.224 10.373 10.373 0 0 0 8.026 3.346 10.368 10.368 0 0 0 8.025-3.343 1.749 1.749 0 1 0 -2.7-2.224z"/></g><path d="m89.7 39.19a6.3 6.3 0 0 0 -.678.051v1.328a22.243 22.243 0 0 1 -.5 4.675l-1.51 6.891-.021.1a6.8 6.8 0 1 0 2.709-13.045z" fill="#fcced3"/><path d="m63.874 102.752s13.574-7.313 19.026-16.089a6.606 6.606 0 0 1 -3.345-2.309 7.716 7.716 0 0 1 -.685-1.053 6.753 6.753 0 0 1 -.769-2.333l-1.101-8.576a21.855 21.855 0 0 1 -26 0l-1.1 8.576a6.882 6.882 0 0 1 -1.489 3.373 7.691 7.691 0 0 1 -3.506 2.411c5.489 8.737 18.969 16 18.969 16z" fill="#fcced3"/><path d="m86.8 87.375a22.856 22.856 0 0 1 -3.9-.712c-5.447 8.776-19.021 16.089-19.021 16.089s-13.48-7.263-18.964-16a9.849 9.849 0 0 1 -3.051.517c-.955.11-1.917.192-2.881.266v38.717h50.039v-38.678c-.743-.061-1.487-.117-2.222-.199z" fill="#979fef"/><g fill="#737ee6"><path d="m25 89.217a22.423 22.423 0 0 0 -16.5 21.617v15.418h30.478v-38.717c-4.695.365-9.454.445-13.978 1.682z"/><path d="m119.5 110.834a22.423 22.423 0 0 0 -16.5-21.617 54.99 54.99 0 0 0 -9.764-1.3c-1.386-.121-2.8-.224-4.214-.339v38.678h30.478z"/></g></g></svg>