<svg id="Flat" height="512" viewBox="0 0 512 512" width="512" xmlns="http://www.w3.org/2000/svg"><g><path d="m64 488v-107.478a30 30 0 0 1 19.127-27.96l124.873-48.562h96l124.873 48.562a30 30 0 0 1 19.127 27.96v107.478z" fill="#666"/><path d="m368 326.691c0 27.13-65.589 49.123-111.968 49.123s-111.968-21.993-111.968-49.123 65.589-78.6 111.968-78.6 111.968 51.471 111.968 78.6z" fill="#4d4d4d"/><path d="m288.036 336h-64.072a20 20 0 0 1 -19.677-23.578l11.713-64.422h80l11.713 64.422a20 20 0 0 1 -19.677 23.578z" fill="#ffd4cf"/><path d="m296 248h-80l-3.874 21.309 11.911 10.122a36.034 36.034 0 0 0 23.314 8.569h17.249a36.022 36.022 0 0 0 23.428-8.667l11.826-10.133z" fill="#fbb8b0"/><path d="m120 424h16v64h-16z" fill="#4d4d4d"/><path d="m376 424h16v64h-16z" fill="#4d4d4d"/><path d="m350 136h-22v-56h-144v56h-22a10 10 0 0 0 -10 10v28a10 10 0 0 0 10 10h22v31.159a20 20 0 0 0 7.048 15.24l43.352 36.841a20 20 0 0 0 12.951 4.76h17.249a20 20 0 0 0 13.015-4.815l43.4-37.2a20 20 0 0 0 6.985-15.185v-30.8h22a10 10 0 0 0 10-10v-28a10 10 0 0 0 -10-10z" fill="#ffd4cf"/><g fill="#ae7069"><path d="m280 144h16v24h-16z"/><path d="m232 168h-16v-24h8 8z"/><path d="m224 208h64a0 0 0 0 1 0 0 24 24 0 0 1 -24 24h-16a24 24 0 0 1 -24-24 0 0 0 0 1 0 0z"/></g><path d="m188 112h28l24-24v24h32l24-24v24h30a10 10 0 0 0 10-10v-38a40 40 0 0 0 -40-40h-128v68a20 20 0 0 0 20 20z" fill="#2471d6"/><g fill="#e6e6e6"><path d="m200 344h-16v72h-8v16h8v8h16v-8h8v-16h-8z"/><path d="m336 416h-8v-72h-16v72h-8v16h8v8h16v-8h8z"/></g></g></svg>