<svg id="Capa_1" enable-background="new 0 0 512 512" height="512" viewBox="0 0 512 512" width="512" xmlns="http://www.w3.org/2000/svg"><g><g><g><path d="m123.851 456.282c-6.446 14.783-10.034 31.087-10.034 48.218h50.361l20.713-48.218z" fill="#c8866a"/><path d="m345.929 456.282c6.446 14.783 10.035 31.087 10.035 48.218h-50.361l-20.713-48.218z" fill="#db9e82"/></g><g><path d="m275.588 390.471h-81.396c-.005.002-.009.003-.014.005l-30 114.024h141.41v-18.98c14.388-8.566 28.325-18.674 40.342-29.238-13.095-30.03-38.308-54.343-70.342-65.811z" fill="#676fb2"/><path d="m261.338 386.348c-8.551-1.914-17.414-2.922-26.449-2.922-14.277 0-27.982 2.491-40.712 7.05-30.832 11.042-56.722 34.605-70.326 65.806 12.012 10.56 25.944 20.666 40.326 29.23v18.988h20.641c.06-52.609 31.452-97.878 76.52-118.152z" fill="#4c5699"/></g></g><g><path d="m194.89 394.278c0-9.214 3.139-17.703 8.393-24.473h-33.969c-2.854 7.622-4.424 15.866-4.424 24.473 0 38.598 31.402 70 70 70v-30c-22.056 0-40-17.944-40-40z" fill="#ffb357"/><path d="m300.466 369.805h-33.969c5.254 6.77 8.393 15.259 8.393 24.473 0 22.056-17.944 40-40 40v30c38.598 0 70-31.402 70-70 0-8.606-1.57-16.85-4.424-24.473z" fill="#ffce71"/></g><g><path d="m444.59 153.488c-1.065-5.466-5.351-9.752-10.817-10.817-17.267-3.366-35.845 1.634-49.226 15.015-3.6 3.6-6.593 7.575-8.98 11.8-6.486 11.481-8.496 24.803-6.035 37.425 1.065 5.466 5.351 9.752 10.817 10.817 17.267 3.366 35.845-1.634 49.226-15.015 13.381-13.38 18.381-31.958 15.015-49.225z" fill="#d4d4ff"/><path d="m444.703 284.26c6.382-1.244 11.385-6.247 12.629-12.629 3.929-20.159-1.908-41.848-17.53-57.47s-37.311-21.459-57.47-17.53c-6.382 1.244-11.385 6.247-12.629 12.629-3.929 20.159 1.908 41.848 17.53 57.47s37.311 21.459 57.47 17.53z" fill="#efedff"/></g><g><g><circle cx="89.763" cy="251.129" fill="#c8866a" r="36.081"/><circle cx="380.018" cy="251.129" fill="#db9e82" r="36.081"/></g><g><path d="m375.568 215.321c-3.35-13.193-8.513-25.667-15.198-37.141h-213.396l-57.212 72.949 94.247 120.172c6.902 8.801 16.034 15.359 26.26 19.17 6.625 2.469 13.706 3.795 20.952 3.795h27.722c5.648-.944 11.183-2.22 16.59-3.795 60.416-17.601 104.485-73.344 104.485-139.342 0-12.359-1.541-24.354-4.45-35.808z" fill="#db9e82"/><path d="m137.871 251.129c0-17.831 3.22-34.909 9.103-50.69h-48.105c-5.883 15.781-9.107 32.858-9.107 50.69 0 66.031 44.104 121.756 104.458 139.342 21.322 6.213 43.534 7.33 64.723 3.795-68.647-11.454-121.072-71.145-121.072-143.137z" fill="#c8866a"/></g><g><path d="m375.568 169.487-37.855-35.789h-190.739v66.742c75.766-16.149 154.898-11.194 228.594 14.881 2.435-15.396 2.478-30.972 0-45.834z" fill="#efedff"/><path d="m132.068 133.698-37.855 35.789c-2.542 14.984-2.457 30.302 0 45.835 17.324-6.13 34.951-11.085 52.762-14.882 10.046-26.945 27.867-50.102 50.735-66.742z" fill="#d4d4ff"/></g><g><g><path d="m353.698 80.641c-6.626-26.923-26.835-48.401-53.26-56.606l-10.548-3.275h-73.534v99.395c6.072-.287 12.246-.402 18.534-.333 49.921-.545 109.046 26.389 140.678 49.664-2.73-11.089-20.06-81.492-21.87-88.845z" fill="#ffce71"/><path d="m279.343 24.035 10.548-3.275-31.322-9.725c-7.711-2.394-15.697-3.568-23.679-3.535-7.982-.034-15.967 1.141-23.678 3.535l-41.869 13c-26.425 8.205-46.634 29.683-53.26 56.606-1.651 6.706-15.874 64.489-21.87 88.845 33.725-25.166 78.145-47.254 122.143-49.331 4.487-18.226 8.704-35.359 9.727-39.514 6.626-26.923 26.835-48.401 53.26-56.606z" fill="#ffb357"/></g><path d="m114.89 61.39c-81.164 6.885-75.271 87.164-20.678 108.096 43.49-23.844 89.595-35.183 140.678-34.666 51.101-.497 97.187 10.821 140.677 34.666-45.516-47.728-157.141-116.878-260.677-108.096z" fill="#676fb2"/></g></g><g><path d="m243.176 429.5h-16.572c-3.441 0-6.621 1.842-8.342 4.832l-7.089 12.317c-2.28 3.962-1.476 9.085 2.036 12.136l15.375 13.357c3.62 3.145 8.992 3.145 12.612 0l2.697-2.343v-40.251c-.239-.018-.475-.048-.717-.048z" fill="#7ce3ff"/><path d="m258.607 446.649-7.089-12.317c-1.6-2.78-4.465-4.547-7.625-4.784-3.16.237-6.025 2.004-7.625 4.784l-7.089 12.317c-.962 1.672-1.368 3.531-1.269 5.352.138 2.546 1.269 5.016 3.305 6.784l12.678 11.014 12.678-11.014c2.036-1.769 3.167-4.238 3.305-6.784.099-1.821-.307-3.68-1.269-5.352z" fill="#b9f0ff"/></g><g><path d="m172.442 259c-4.142 0-7.5 3.358-7.5 7.5v12c0 4.142 3.358 7.5 7.5 7.5s7.5-3.358 7.5-7.5v-12c0-4.142-3.358-7.5-7.5-7.5z"/><path d="m297.339 259c-4.142 0-7.5 3.358-7.5 7.5v12c0 4.142 3.358 7.5 7.5 7.5s7.5-3.358 7.5-7.5v-12c0-4.142-3.358-7.5-7.5-7.5z"/><path d="m256.282 272.489c-3.124-2.721-7.86-2.396-10.582.727-5.725 6.569-15.898 6.567-21.62 0-2.721-3.123-7.459-3.447-10.582-.727-3.123 2.722-3.448 7.459-.727 10.582 11.704 13.43 32.544 13.418 44.237 0 2.722-3.123 2.397-7.861-.726-10.582z"/><path d="m439.021 203.437c11.689-14.263 16.506-33.042 12.93-51.384-1.659-8.512-8.231-15.084-16.742-16.743-20.38-3.971-41.301 2.41-55.965 17.073-.044.044-.086.09-.13.134l-8.246-33.499c-.99-4.022-5.051-6.477-9.075-5.49-4.021.99-6.479 5.053-5.489 9.076l5.912 24.021c-32.632-28.056-73.428-52.645-115.001-69.286-37.719-15.098-74.9-23.284-108.946-24.109 8.716-10.314 20.19-17.964 33.297-22.033l41.869-13c7.211-2.238 14.341-3.216 21.487-3.197 7.267-.012 14.36 1.004 21.422 3.197l41.87 13c23.769 7.38 42.239 27.012 48.201 51.235l2.702 10.974c.986 4.006 5.033 6.483 9.075 5.49 4.021-.99 6.479-5.053 5.489-9.075l-2.701-10.974c-7.211-29.299-29.558-53.046-58.318-61.976l-41.87-13c-8.149-2.528-13.038-3.871-25.869-3.871-8.773-.023-17.413 1.227-25.935 3.873l-41.869 13c-19.856 6.165-36.615 19.112-47.6 36.674-36.025 2.14-68.027 17.671-72.971 52.556-3.878 27.364 12.485 55.075 39.406 67.986-1.321 10.504-1.533 21.596-.287 33.669-22.594 2.137-39.486 21.092-39.486 43.372 0 23.425 18.583 42.839 42.307 43.54 10.905 36.318 35.924 68.714 69.728 88.497-.92 6.272-1.061 12.499-.482 18.581-4.427 3.332-8.662 6.948-12.617 10.809-2.964 2.893-3.021 7.642-.128 10.606s7.641 3.022 10.606.128c1.783-1.741 3.645-3.411 5.545-5.037 7.667 23.603 26.537 42.924 51.957 50.367l10.57 9.182c6.398 5.559 16.05 5.56 22.449 0l10.57-9.183c25.429-7.446 44.303-26.777 51.965-50.39 11.698 10.011 21.242 22.272 28.07 36.069-7.36 6.17-15.349 12.119-23.632 17.625v-4.776c0-4.142-3.358-7.5-7.5-7.5s-7.5 3.358-7.5 7.5v29.852h-126.41c0-26.129 0 7.333 0-29.852 0-4.142-3.358-7.5-7.5-7.5s-7.5 3.358-7.5 7.5v4.767c-8.275-5.502-16.258-11.448-23.616-17.615 1.535-3.101 3.199-6.144 5.002-9.079 2.168-3.529 1.064-8.148-2.465-10.316-3.531-2.168-8.149-1.064-10.316 2.465-12.042 19.602-18.965 42.564-18.965 67.131 0 4.142 3.358 7.5 7.5 7.5h191.771.016 50.361c4.143 0 7.5-3.358 7.5-7.5 0-41.273-19.684-78.901-51.415-102.774.577-6.088.434-12.321-.49-18.599 32.39-18.846 58.137-50.01 69.582-88.454 8.309-.218 16.392-2.795 23.273-7.44 8.86 3.766 18.441 5.701 28.065 5.701 4.568 0 9.146-.435 13.658-1.314 9.434-1.838 16.717-9.122 18.555-18.555 5.007-25.696-4.323-52.652-25.674-69.629zm-311.94 265.361c9.244 7.471 19.284 14.583 29.596 20.939v7.263h-35.117c.629-9.643 2.481-19.076 5.521-28.202zm186.007 28.202v-7.255c10.321-6.36 20.366-13.475 29.612-20.947 3.04 9.125 4.893 18.558 5.521 28.202zm119.251-346.967c2.485.484 4.405 2.404 4.89 4.89 2.833 14.533-1.269 29.426-10.996 40.402-20.487-10.133-43.25-8.408-52.048-3.608-2.58 1.175-4.292 3.694-4.413 6.542-.104 2.318-.266 4.653-.487 6.99-43.438-14.314-88.935-21.566-135.38-21.566-45.911 0-91.825 7.409-133.426 21.48-.988-10.306-.865-20.338.603-30.856 41.375-22.006 85.191-32.466 133.733-31.986.05.001.1.001.149 0 49.9-.493 94.701 10.552 136.999 33.743.047.026.12.054.164.077 3.539 1.831 7.958.579 9.966-2.966l.005.003c9.798-17.336 29.788-27.132 50.241-23.145zm-370.939-41.826c3.121-22.026 23.354-36.734 54.124-39.344 74.099-6.284 158.199 29.5 217.548 73.658-30.921-10.529-63.381-15.537-98.179-15.201-51.236-.502-97.418 10.575-141.106 33.871-21.916-9.836-35.413-31.628-32.387-52.984zm-.219 142.922c0-14.023 10.198-25.87 23.677-28.167-3.587 18.938-3.565 37.968-.12 56.311-13.469-2.353-23.557-14.216-23.557-28.144zm111.324 139.398c4.872 2.188 9.859 4.113 14.943 5.771.69 15.538 9.055 29.842 22.109 38.125l-4.884 8.486c-.914 1.588-1.532 3.276-1.896 4.996-20.044-11.956-31.725-34.138-30.272-57.378zm77.063 32.725c-2.004-.81-4.169-1.251-6.392-1.251h-16.571c-2.222 0-4.387.441-6.391 1.251-8.982-4.574-15.29-13.084-17.206-22.791 10.287 2.17 20.877 3.296 31.652 3.295 10.662 0 21.298-1.066 32.127-3.369-1.898 9.737-8.214 18.279-17.219 22.865zm-13.29 43.228c-.805.698-1.971.699-2.775 0l-15.375-13.357c-.77-.669-.966-1.845-.454-2.733l7.089-12.317c.307-.534.996-1.072 1.841-1.072h16.571c.59 0 1.418.336 1.842 1.073l7.089 12.316c.511.889.316 2.064-.455 2.733zm30.726-18.576c-.364-1.72-.982-3.408-1.896-4.996l-4.884-8.485c13.078-8.298 21.452-22.64 22.114-38.213 5.085-1.66 10.071-3.579 14.935-5.758 1.491 23.4-10.312 45.548-30.269 57.452zm-32.311-59.15c-87.186-.003-153.543-81.265-134.122-167.725 41.293-14.614 87.29-22.347 133.333-22.347 46.501 0 91.996 7.547 135.31 22.392 18.915 86.007-45.986 167.68-134.521 167.68zm150.196-165.799c13.579 2.296 23.711 14.226 23.711 28.175 0 14.146-10.366 25.93-23.737 28.177 3.453-18.411 3.52-37.491.026-56.352zm65.081 47.242c-.664 3.407-3.294 6.037-6.701 6.701-9.049 1.764-18.412 1.258-27.158-1.366 4.827-7.143 7.49-15.627 7.49-24.403 0-22.265-16.881-41.24-39.49-43.377.131-1.293.24-2.586.34-3.878 39.201-7.143 73.111 27.37 65.519 66.323z"/></g></g></svg>