<?xml version="1.0" encoding="iso-8859-1"?>
<!-- Generator: Adobe Illustrator 19.0.0, SVG Export Plug-In . SVG Version: 6.00 Build 0)  -->
<svg version="1.1" id="Capa_1" xmlns="http://www.w3.org/2000/svg" xmlns:xlink="http://www.w3.org/1999/xlink" x="0px" y="0px"
	 viewBox="0 0 471.528 471.528" style="enable-background:new 0 0 471.528 471.528;" xml:space="preserve">
<path style="fill:#D1A482;" d="M419.764,383.528h-368c-26.512,0-48,21.488-48,48v40h464v-40
	C467.764,405.016,446.276,383.528,419.764,383.528z"/>
<path style="fill:#BF9677;" d="M467.764,431.528c0-26.512-21.488-48-48-48h-184v88h232V431.528z"/>
<path style="fill:#EFE1D3;" d="M235.764,423.528l64-40l0,0v-47.144c0,0-0.008,0-0.016,0.008c-4.384,2.184-8.896,4.128-13.52,5.864
	c-0.92,0.352-1.848,0.688-2.784,1.016c-2.944,1.032-5.92,1.984-8.952,2.832c-2.336,0.664-4.688,1.272-7.064,1.816
	c-1.576,0.352-3.16,0.704-4.76,1c-3.656,0.704-7.36,1.28-11.12,1.696c-0.92,0.104-1.848,0.168-2.776,0.248
	c-4.28,0.4-8.608,0.664-13.008,0.664s-8.728-0.264-13.024-0.656c-0.928-0.08-1.856-0.152-2.776-0.248
	c-3.752-0.416-7.456-0.992-11.12-1.696c-1.6-0.304-3.176-0.648-4.76-1c-2.384-0.544-4.736-1.16-7.064-1.816
	c-3.032-0.848-6.008-1.8-8.952-2.832c-0.928-0.328-1.856-0.672-2.784-1.016c-4.624-1.736-9.136-3.68-13.52-5.864h-0.008
	l0.008,47.128l0,0L235.764,423.528z"/>
<polygon style="fill:#E6D8CA;" points="171.78,351.528 235.764,375.528 299.764,350.664 299.764,327.528 171.764,327.528 "/>
<g>
	<polygon style="fill:#F9EDE0;" points="109.452,95.528 109.452,95.528 109.436,95.528 	"/>
	<path style="fill:#F9EDE0;" d="M188.076,343.272c2.936,1.04,5.928,1.976,8.952,2.832c2.336,0.656,4.68,1.28,7.064,1.816
		c1.576,0.36,3.16,0.696,4.76,1c3.664,0.696,7.36,1.288,11.12,1.696c0.92,0.104,1.848,0.168,2.776,0.248
		c4.288,0.392,8.624,0.664,13.016,0.664s8.728-0.272,13.024-0.656c0.928-0.088,1.856-0.144,2.776-0.248
		c3.752-0.408,7.456-1,11.12-1.696c1.592-0.304,3.184-0.64,4.76-1c2.384-0.536,4.728-1.168,7.064-1.816
		c3.024-0.856,6.008-1.792,8.952-2.832c0.936-0.328,1.856-0.672,2.784-1.016c4.616-1.744,9.136-3.688,13.52-5.864
		c47.368-23.584,80-72.36,80-128.872v-56c-26.512,0-48-21.488-48-48v-8H109.452l0,0c-0.008,0-0.016,0-0.016,0
		c-3.056,0-6.072-0.28-9.008-0.808c-5.504,15.256-8.664,31.648-8.664,48.808v8v56c0,56.512,32.632,105.288,80.016,128.864
		c4.384,2.184,8.904,4.12,13.52,5.864C186.22,342.6,187.14,342.944,188.076,343.272z"/>
</g>
<g>
	<path style="fill:#EFE1D3;" d="M75.764,151.528c-17.672,0-32,14.328-32,32s14.328,32,32,32h16v-8v-56H75.764z"/>
	<path style="fill:#EFE1D3;" d="M379.764,215.528h16c17.672,0,32-14.328,32-32s-14.328-32-32-32h-16v56V215.528z"/>
</g>
<path style="fill:#634C42;" d="M109.436,95.528c0.008,0,0.016,0,0.016,0h222.312v8c0,26.512,21.488,48,48,48v-8
	c0-70.696-57.304-128-128-128h-128C113.5,15.528,104.812,9.056,101.38,0C75.684,3.424,56.396,27.112,60.252,54.496
	c2.944,20.88,19.856,36.576,40.176,40.216l0,0C103.372,95.24,106.38,95.528,109.436,95.528z"/>
<path style="fill:#F9EDE0;" d="M100.428,94.712L100.428,94.712c2.944,0.528,5.952,0.816,9.008,0.816
	C106.38,95.528,103.372,95.24,100.428,94.712z"/>
<g>
	<circle style="fill:#4B413A;" cx="179.764" cy="183.528" r="16"/>
	<circle style="fill:#4B413A;" cx="291.764" cy="183.528" r="16"/>
</g>
<g>
	<ellipse style="fill:#F7CDBF;" cx="167.764" cy="227.528" rx="20" ry="12"/>
	<ellipse style="fill:#F7CDBF;" cx="303.764" cy="227.528" rx="20" ry="12"/>
</g>
<path style="fill:#EFE1D3;" d="M331.764,95.528H109.452l0,0c-0.008,0-0.016,0-0.016,0c-3.056,0-6.072-0.28-9.008-0.808
	c-1.936,5.368-3.464,10.92-4.784,16.552L331.764,95.528z"/>
<g>
</g>
<g>
</g>
<g>
</g>
<g>
</g>
<g>
</g>
<g>
</g>
<g>
</g>
<g>
</g>
<g>
</g>
<g>
</g>
<g>
</g>
<g>
</g>
<g>
</g>
<g>
</g>
<g>
</g>
</svg>
