<?xml version="1.0" encoding="iso-8859-1"?>
<!-- Generator: Adobe Illustrator 19.0.0, SVG Export Plug-In . SVG Version: 6.00 Build 0)  -->
<svg version="1.1" id="Capa_1" xmlns="http://www.w3.org/2000/svg" xmlns:xlink="http://www.w3.org/1999/xlink" x="0px" y="0px"
	 viewBox="0 0 472 472" style="enable-background:new 0 0 472 472;" xml:space="preserve">
<g>
	<path style="fill:#F9EDE0;" d="M188.312,343.744c-0.936-0.328-1.856-0.672-2.784-1.016
		C186.456,343.072,187.376,343.416,188.312,343.744z"/>
	<path style="fill:#F9EDE0;" d="M220.2,351.096c-3.752-0.408-7.456-1-11.12-1.696C212.744,350.104,216.448,350.672,220.2,351.096z"
		/>
	<path style="fill:#F9EDE0;" d="M204.328,348.392c-2.384-0.536-4.728-1.168-7.064-1.816
		C199.6,347.232,201.952,347.848,204.328,348.392z"/>
</g>
<path style="fill:#D38181;" d="M420,384H52c-26.512,0-48,21.488-48,48v40h464v-40C468,405.488,446.512,384,420,384z"/>
<path style="fill:#C16767;" d="M468,432c0-26.512-21.488-48-48-48H236v88h232V432z"/>
<path style="fill:#EFE1D3;" d="M236,424l64-40l0,0v-47.144c0,0-0.008,0-0.016,0.008c-4.384,2.184-8.896,4.128-13.52,5.864
	c-0.92,0.352-1.848,0.688-2.784,1.016c-2.944,1.032-5.92,1.984-8.952,2.832c-2.336,0.664-4.688,1.272-7.064,1.816
	c-1.576,0.352-3.16,0.704-4.76,1c-3.656,0.704-7.36,1.28-11.12,1.696c-0.92,0.104-1.848,0.168-2.776,0.248
	C244.728,351.736,240.4,352,236,352s-8.728-0.264-13.024-0.656c-0.928-0.08-1.856-0.152-2.776-0.248
	c-3.752-0.416-7.456-0.992-11.12-1.696c-1.6-0.304-3.176-0.648-4.76-1c-2.384-0.544-4.736-1.16-7.064-1.816
	c-3.032-0.848-6.008-1.8-8.952-2.832c-0.928-0.328-1.856-0.672-2.784-1.016c-4.624-1.736-9.136-3.68-13.52-5.864h-0.008L172,384l0,0
	L236,424z"/>
<polygon style="fill:#E6D8CA;" points="172.016,352 236,376 300,351.136 300,328 172,328 "/>
<g>
	<path style="fill:#F9EDE0;" d="M286.472,342.728c-0.92,0.344-1.848,0.688-2.784,1.016
		C284.624,343.416,285.544,343.072,286.472,342.728z"/>
	<path style="fill:#F9EDE0;" d="M236,352c-4.392,0-8.728-0.272-13.024-0.656C227.272,351.736,231.6,352,236,352z"/>
	<path style="fill:#F9EDE0;" d="M274.736,346.576c-2.336,0.656-4.68,1.28-7.064,1.816
		C270.048,347.848,272.4,347.232,274.736,346.576z"/>
	<path style="fill:#F9EDE0;" d="M262.912,349.392c-3.664,0.696-7.36,1.288-11.12,1.696
		C255.552,350.672,259.256,350.104,262.912,349.392z"/>
	<path style="fill:#F9EDE0;" d="M249.024,351.344C244.728,351.728,240.392,352,236,352C240.4,352,244.728,351.736,249.024,351.344z"
		/>
	<path style="fill:#F9EDE0;" d="M188.312,343.744c2.936,1.04,5.928,1.976,8.952,2.832c2.336,0.656,4.68,1.28,7.064,1.816
		c1.576,0.36,3.16,0.696,4.76,1c3.664,0.696,7.36,1.288,11.12,1.696c0.92,0.104,1.848,0.168,2.776,0.248
		C227.272,351.728,231.608,352,236,352s8.728-0.272,13.024-0.656c0.928-0.088,1.856-0.144,2.776-0.248
		c3.752-0.408,7.456-1,11.12-1.696c1.592-0.304,3.184-0.64,4.76-1c2.384-0.536,4.728-1.168,7.064-1.816
		c3.024-0.856,6.008-1.792,8.952-2.832c0.936-0.328,1.856-0.672,2.784-1.016c4.616-1.744,9.136-3.688,13.52-5.864
		c47.368-23.584,80-72.36,80-128.872v-32h-32V96H124v80H92v32c0,56.512,32.632,105.288,80.016,128.864
		c4.384,2.184,8.904,4.12,13.52,5.864C186.456,343.072,187.376,343.416,188.312,343.744z M220,240h32c22.088,0,40,17.912,40,40H180
		C180,257.912,197.912,240,220,240z"/>
</g>
<g>
	<path style="fill:#EFE1D3;" d="M92,152H76c-17.672,0-32,14.328-32,32s14.328,32,32,32h16v-8v-32V152z"/>
	<path style="fill:#EFE1D3;" d="M380,208v8h16c17.672,0,32-14.328,32-32s-14.328-32-32-32h-16v24V208z"/>
</g>
<g>
	<path style="fill:#F9EDE0;" d="M251.8,351.096c-0.92,0.104-1.848,0.168-2.776,0.248C249.944,351.256,250.872,351.192,251.8,351.096
		z"/>
	<path style="fill:#F9EDE0;" d="M299.984,336.864c-4.384,2.184-8.904,4.12-13.52,5.864
		C291.096,340.992,295.6,339.04,299.984,336.864z"/>
	<path style="fill:#F9EDE0;" d="M267.672,348.392c-1.576,0.36-3.16,0.696-4.76,1C264.512,349.096,266.088,348.752,267.672,348.392z"
		/>
	<path style="fill:#F9EDE0;" d="M283.688,343.744c-2.936,1.04-5.928,1.976-8.952,2.832
		C277.768,345.728,280.744,344.776,283.688,343.744z"/>
	<path style="fill:#F9EDE0;" d="M197.264,346.576c-3.024-0.856-6.008-1.792-8.952-2.832
		C191.256,344.776,194.232,345.728,197.264,346.576z"/>
	<path style="fill:#F9EDE0;" d="M209.088,349.392c-1.592-0.304-3.184-0.64-4.76-1C205.912,348.752,207.488,349.096,209.088,349.392z
		"/>
	<path style="fill:#F9EDE0;" d="M172.016,336.864c4.384,2.184,8.896,4.128,13.52,5.864
		C180.912,340.984,176.392,339.04,172.016,336.864z"/>
	<path style="fill:#F9EDE0;" d="M222.976,351.344c-0.928-0.088-1.856-0.144-2.776-0.248
		C221.128,351.192,222.056,351.256,222.976,351.344z"/>
</g>
<g>
	<path style="fill:#8E7154;" d="M124,176V96h224v80h32v-24V76.624c14.112-6.176,24-20.232,24-36.624c0-22.088-17.912-40-40-40
		c-13.144,0-24.712,6.432-32,16.216C324.712,6.432,313.144,0,300,0s-24.712,6.432-32,16.216C260.712,6.432,249.144,0,236,0
		s-24.712,6.432-32,16.216C196.712,6.432,185.144,0,172,0s-24.712,6.432-32,16.216C132.712,6.432,121.144,0,108,0
		C85.912,0,68,17.912,68,40c0,16.392,9.888,30.448,24,36.624V152v24H124z"/>
	<path style="fill:#8E7154;" d="M252,240h-32c-22.088,0-40,17.912-40,40h112C292,257.912,274.088,240,252,240z"/>
</g>
<g>
	<circle style="fill:#4B413A;" cx="180" cy="184" r="16"/>
	<circle style="fill:#4B413A;" cx="292" cy="184" r="16"/>
</g>
<g>
	<ellipse style="fill:#F7CDBF;" cx="168" cy="228" rx="20" ry="12"/>
	<ellipse style="fill:#F7CDBF;" cx="304" cy="228" rx="20" ry="12"/>
</g>
<g>
</g>
<g>
</g>
<g>
</g>
<g>
</g>
<g>
</g>
<g>
</g>
<g>
</g>
<g>
</g>
<g>
</g>
<g>
</g>
<g>
</g>
<g>
</g>
<g>
</g>
<g>
</g>
<g>
</g>
</svg>
