<svg id="Filled_stroke_cutting_expand" height="512" viewBox="0 0 512 512" width="512" xmlns="http://www.w3.org/2000/svg" data-name="Filled stroke cutting expand"><g><g><path d="m64 488v-107.478a30 30 0 0 1 19.127-27.96l124.873-48.562h96l124.873 48.562a30 30 0 0 1 19.127 27.96v107.478z" fill="#31cad0"/><path d="m200 320 56 40 56-40-56 168z" fill="#249c9f"/><path d="m200 312-56 56 48 16-16 32 56 72h24z" fill="#d0f5f0"/><path d="m312 312 56 56-48 16 16 32-56 72h-24z" fill="#d0f5f0"/><path d="m312 312-56 48-56-48 16-64h80z" fill="#ffd4cf"/><path d="m296 248h-80l-5.073 20.29 13.11 11.141a36.034 36.034 0 0 0 23.314 8.569h17.249a36.022 36.022 0 0 0 23.428-8.667l13.014-11.155z" fill="#fbb8b0"/><g fill="#ffd4cf"><path d="m328 104h-72l-24-32-16 32h-24l-8 16v95.159a20 20 0 0 0 7.048 15.24l43.352 36.841a20 20 0 0 0 12.951 4.76h17.249a20 20 0 0 0 13.015-4.815l43.4-37.2a20 20 0 0 0 6.985-15.185z"/><path d="m152 136h22a10 10 0 0 1 10 10v28a10 10 0 0 1 -10 10h-22a0 0 0 0 1 0 0v-48a0 0 0 0 1 0 0z" transform="matrix(-1 0 0 -1 336 320)"/><path d="m338 136h22a0 0 0 0 1 0 0v48a0 0 0 0 1 0 0h-22a10 10 0 0 1 -10-10v-28a10 10 0 0 1 10-10z" transform="matrix(-1 0 0 -1 688 320)"/></g><path d="m184 136v-16l8-16h24l16-32 24 32h72a40 40 0 0 0 40-40v-40h-168a40 40 0 0 0 -40 40v52a20 20 0 0 0 20 20z" fill="#fa5d3f"/></g><g><path d="m456 416v-35.478a37.764 37.764 0 0 0 -24.227-35.416l-114.373-44.477-11.734-46.949 20.556-17.619a27.968 27.968 0 0 0 9.778-21.261v-22.8h14a18.021 18.021 0 0 0 18-18v-28a18.021 18.021 0 0 0 -18-18h-14v-16.667a48.078 48.078 0 0 0 40-47.333h-16a32.036 32.036 0 0 1 -32 32h-68l-21.6-28.8a8 8 0 0 0 -13.555 1.222l-13.789 27.578h-19.056a8 8 0 0 0 -7.155 4.422l-8 16a7.994 7.994 0 0 0 -.845 3.578v7.314a12.02 12.02 0 0 1 -8-11.314v-52a32.036 32.036 0 0 1 32-32h160v16h16v-24a8 8 0 0 0 -8-8h-168a48.055 48.055 0 0 0 -48 48v52a27.826 27.826 0 0 0 3.351 13.273 18.028 18.028 0 0 0 -11.351 16.727v28a18.021 18.021 0 0 0 18 18h14v23.159a27.956 27.956 0 0 0 9.868 21.336l20.423 17.356-11.691 46.778-77.5 30.137 5.8 14.912 52.542-20.432-37.1 37.1a8 8 0 0 0 3.127 13.246l39.249 13.083-11.874 23.75a8 8 0 0 0 .84 8.49l45.959 59.085h-79.643v-56h-16v56h-48v-99.478a21.863 21.863 0 0 1 14.026-20.5l20.874-8.122-5.8-14.912-20.874 8.118a37.764 37.764 0 0 0 -24.226 35.416v107.478a8 8 0 0 0 8 8h384a8 8 0 0 0 8-8v-56h-16v48h-143.643l24.889-32h54.754v-16h-42.309l8.624-11.088a8 8 0 0 0 .84-8.49l-11.874-23.75 39.249-13.083a8 8 0 0 0 3.127-13.246l-37.1-37.1 89.415 34.772a21.863 21.863 0 0 1 14.028 20.507v35.478zm-106-272a2 2 0 0 1 2 2v28a2 2 0 0 1 -2 2h-14v-32zm-188 32a2 2 0 0 1 -2-2v-28a2 2 0 0 1 2-2h14v32zm30 39.159v-93.27l4.944-9.889h19.056a8 8 0 0 0 7.155-4.422l10.212-20.423 16.233 21.645a8 8 0 0 0 6.4 3.2h64v102.8a11.982 11.982 0 0 1 -4.191 9.111l-43.4 37.2a12.008 12.008 0 0 1 -7.809 2.889h-17.249a12.009 12.009 0 0 1 -7.771-2.856l-43.351-36.844a11.979 11.979 0 0 1 -4.229-9.141zm37.218 58.176a28.025 28.025 0 0 0 18.133 6.665h17.249a28.019 28.019 0 0 0 18.222-6.741l9.26-7.937 10.956 43.822-47.038 40.319-47.04-40.319 10.933-43.733zm66.628 63.048-39.846 125.232-39.846-125.232 34.639 29.691a8 8 0 0 0 10.414 0zm-59.933 143.617-50.5-64.932 13.745-27.49a8 8 0 0 0 -4.625-11.167l-35.723-11.911 37.552-37.552 48.698 153.052zm81.557-103.589a8 8 0 0 0 -4.625 11.167l13.745 27.49-50.503 64.932h-9.147l48.7-153.048 37.55 37.548z"/><path d="m280 144h16v24h-16z"/><path d="m216 144h16v24h-16z"/><path d="m264 232a24 24 0 0 0 24-24h-64a24 24 0 0 0 24 24z"/></g></g></svg>