<svg id="Capa_1" enable-background="new 0 0 497 497" height="512" viewBox="0 0 497 497" width="512" xmlns="http://www.w3.org/2000/svg"><g><g><g><path d="m116.347 448.782c-6.446 14.783-10.034 31.087-10.034 48.218h50.361l20.713-48.218z" fill="#c8866a"/><path d="m338.425 448.782c6.446 14.783 10.035 31.087 10.035 48.218h-50.361l-20.713-48.218z" fill="#db9e82"/></g><g><path d="m268.084 382.971h-81.396c-.005.002-.009.003-.014.005l-30 114.024h141.41v-18.98c14.388-8.566 28.325-18.674 40.342-29.238-13.095-30.03-38.308-54.343-70.342-65.811z" fill="#676fb2"/><path d="m253.834 378.848c-8.551-1.914-17.414-2.922-26.449-2.922-14.277 0-27.982 2.491-40.712 7.05-30.832 11.042-56.722 34.605-70.326 65.806 12.012 10.56 25.944 20.666 40.326 29.23v18.988h20.641c.06-52.61 31.452-97.878 76.52-118.152z" fill="#4c5699"/></g></g><g><path d="m187.386 386.778c0-9.214 3.139-17.703 8.393-24.473h-33.969c-2.854 7.622-4.424 15.866-4.424 24.473 0 38.598 31.402 70 70 70v-30c-22.056 0-40-17.944-40-40z" fill="#ffb357"/><path d="m292.962 362.305h-33.969c5.254 6.77 8.393 15.259 8.393 24.473 0 22.056-17.944 40-40 40v30c38.598 0 70-31.402 70-70 0-8.606-1.57-16.851-4.424-24.473z" fill="#ffce71"/></g><g><path d="m437.086 145.988c-1.065-5.466-5.351-9.752-10.817-10.817-17.267-3.366-35.845 1.634-49.226 15.015-3.6 3.6-6.593 7.575-8.98 11.8-6.486 11.481-8.496 24.803-6.035 37.425 1.065 5.466 5.351 9.752 10.817 10.817 17.267 3.366 35.845-1.634 49.226-15.015s18.381-31.958 15.015-49.225z" fill="#d4d4ff"/><path d="m437.199 276.759c6.381-1.244 11.385-6.247 12.629-12.629 3.929-20.159-1.908-41.848-17.53-57.47s-37.311-21.459-57.47-17.53c-6.382 1.244-11.385 6.247-12.629 12.629-3.929 20.159 1.908 41.848 17.53 57.47s37.311 21.46 57.47 17.53z" fill="#efedff"/></g><g><g><circle cx="82.259" cy="243.629" fill="#c8866a" r="36.081"/><circle cx="372.514" cy="243.629" fill="#db9e82" r="36.081"/></g><g><path d="m368.064 207.821c-3.35-13.193-8.513-25.667-15.198-37.141h-213.396l-57.212 72.949 94.247 120.172c6.902 8.801 16.034 15.359 26.26 19.17 6.625 2.469 13.706 3.795 20.952 3.795h27.722c5.649-.944 11.183-2.22 16.59-3.795 60.416-17.601 104.485-73.344 104.485-139.342 0-12.359-1.541-24.355-4.45-35.808z" fill="#db9e82"/><path d="m130.367 243.629c0-17.831 3.22-34.909 9.103-50.69h-48.105c-5.883 15.781-9.107 32.858-9.107 50.69 0 66.031 44.104 121.756 104.458 139.342 21.322 6.213 43.534 7.33 64.723 3.795-68.648-11.454-121.072-71.145-121.072-143.137z" fill="#c8866a"/></g><g fill="#313d40"><path d="m164.938 251.5c-4.142 0-7.5 3.358-7.5 7.5v12c0 4.142 3.358 7.5 7.5 7.5s7.5-3.358 7.5-7.5v-12c0-4.142-3.358-7.5-7.5-7.5z"/><path d="m289.835 251.5c-4.142 0-7.5 3.358-7.5 7.5v12c0 4.142 3.358 7.5 7.5 7.5s7.5-3.358 7.5-7.5v-12c0-4.142-3.358-7.5-7.5-7.5z"/><path d="m248.778 264.988c-3.123-2.721-7.861-2.396-10.582.727-2.729 3.132-6.669 4.929-10.81 4.929s-8.081-1.796-10.81-4.929c-2.721-3.123-7.459-3.447-10.582-.727-3.123 2.722-3.448 7.459-.727 10.582 5.579 6.402 13.641 10.073 22.119 10.073s16.54-3.671 22.119-10.073c2.721-3.123 2.396-7.86-.727-10.582z"/></g><g><path d="m368.064 161.986-37.855-35.789h-190.739v66.742c75.766-16.149 154.898-11.194 228.594 14.881 2.435-15.396 2.478-30.972 0-45.834z" fill="#efedff"/><path d="m124.564 126.197-37.855 35.789c-2.542 14.984-2.457 30.302 0 45.835 17.324-6.13 34.951-11.085 52.762-14.882 10.046-26.945 27.867-50.102 50.735-66.742z" fill="#d4d4ff"/></g><g><g><path d="m346.194 73.141c-6.626-26.923-26.835-48.401-53.26-56.606l-10.548-3.275h-73.534v99.395c6.072-.287 12.246-.402 18.534-.333 49.921-.545 109.046 26.389 140.678 49.664-2.73-11.089-20.06-81.493-21.87-88.845z" fill="#ffce71"/><path d="m271.839 16.535 10.548-3.275-31.322-9.725c-7.711-2.394-15.697-3.568-23.679-3.535-7.982-.034-15.967 1.141-23.678 3.535l-41.869 13c-26.425 8.205-46.634 29.683-53.26 56.606-1.651 6.706-15.874 64.489-21.87 88.845 33.725-25.166 78.145-47.254 122.143-49.331 4.487-18.226 8.704-35.359 9.727-39.514 6.626-26.923 26.835-48.402 53.26-56.606z" fill="#ffb357"/></g><path d="m107.386 53.89c-81.164 6.885-75.271 87.164-20.678 108.096 43.49-23.844 89.595-35.183 140.678-34.666 51.101-.497 97.187 10.821 140.677 34.666-45.516-47.728-157.141-116.878-260.677-108.096z" fill="#676fb2"/></g></g><g><path d="m235.672 422h-16.572c-3.441 0-6.621 1.842-8.342 4.832l-7.089 12.317c-2.28 3.962-1.476 9.085 2.036 12.136l15.375 13.357c3.62 3.145 8.992 3.145 12.612 0l2.697-2.343v-40.251c-.239-.018-.475-.048-.717-.048z" fill="#7ce3ff"/><path d="m251.103 439.148-7.089-12.317c-1.6-2.78-4.465-4.547-7.625-4.784-3.16.237-6.025 2.004-7.625 4.784l-7.089 12.317c-.962 1.672-1.368 3.531-1.269 5.352.138 2.546 1.269 5.016 3.305 6.784l12.678 11.014 12.678-11.014c2.036-1.769 3.167-4.238 3.305-6.784.098-1.82-.307-3.679-1.269-5.352z" fill="#b9f0ff"/></g></g></svg>