<?xml version="1.0" encoding="iso-8859-1"?>
<!-- Generator: Adobe Illustrator 19.0.0, SVG Export Plug-In . SVG Version: 6.00 Build 0)  -->
<svg version="1.1" id="Capa_1" xmlns="http://www.w3.org/2000/svg" xmlns:xlink="http://www.w3.org/1999/xlink" x="0px" y="0px"
	 viewBox="0 0 480 480" style="enable-background:new 0 0 480 480;" xml:space="preserve">
<path style="fill:#8C8A85;" d="M192.312,351.744c2.936,1.04,5.928,1.976,8.952,2.832c2.336,0.656,4.68,1.28,7.064,1.816
	c1.576,0.36,3.16,0.696,4.76,1c3.664,0.696,7.36,1.288,11.12,1.696c0.92,0.104,1.848,0.168,2.776,0.248
	C231.272,359.728,235.608,360,240,360s8.728-0.272,13.024-0.656c0.928-0.088,1.856-0.144,2.776-0.248
	c3.752-0.408,7.456-1,11.12-1.696c1.592-0.304,3.184-0.64,4.76-1c2.384-0.536,4.728-1.168,7.064-1.816
	c3.024-0.856,6.008-1.792,8.952-2.832c0.936-0.328,1.856-0.672,2.784-1.016c4.616-1.744,9.136-3.688,13.52-5.864
	c45.112-22.448,76.68-67.776,79.608-120.864H376c-17.672,0-32,14.328-32,32s-14.328,32-32,32h-24c0-17.672-14.328-32-32-32h-32
	c-17.672,0-32,14.328-32,32h-24c-17.672,0-32-14.328-32-32s-14.328-32-32-32h-7.592c2.928,53.08,34.496,98.408,79.608,120.864
	c4.384,2.184,8.904,4.12,13.52,5.864C190.456,351.072,191.376,351.416,192.312,351.744z"/>
<path style="fill:#F9EDE0;" d="M136,256c0,17.672,14.328,32,32,32h24c0-17.672,14.328-32,32-32h32c17.672,0,32,14.328,32,32h24
	c17.672,0,32-14.328,32-32s14.328-32,32-32h7.592H384h16c17.672,0,32-14.328,32-32s-14.328-32-32-32h-16v-8
	c0-46.328-21.968-87.432-55.968-113.744C313.248,72.224,279.416,96,240,96s-73.248-23.776-88.032-57.744
	C117.968,64.568,96,105.672,96,152v8H80c-17.672,0-32,14.328-32,32s14.328,32,32,32h16h0.408H104C121.672,224,136,238.328,136,256z"
	/>
<path style="fill:#86B2BC;" d="M424,392H304l-64,40l-64-40H56c-26.512,0-48,21.488-48,48v40h464v-40
	C472,413.488,450.512,392,424,392z"/>
<path style="fill:#F9EDE0;" d="M304,392v-47.144c0,0-0.008,0-0.016,0.008c-4.384,2.184-8.904,4.12-13.52,5.864
	c-0.92,0.344-1.848,0.688-2.784,1.016c-2.936,1.04-5.928,1.976-8.952,2.832c-2.336,0.656-4.68,1.28-7.064,1.816
	c-1.576,0.36-3.16,0.696-4.76,1c-3.664,0.696-7.36,1.288-11.12,1.696c-0.92,0.104-1.848,0.168-2.776,0.248
	C248.728,359.728,244.392,360,240,360s-8.728-0.272-13.024-0.656c-0.928-0.088-1.856-0.144-2.776-0.248
	c-3.752-0.408-7.456-1-11.12-1.696c-1.592-0.304-3.184-0.64-4.76-1c-2.384-0.536-4.728-1.168-7.064-1.816
	c-3.024-0.856-6.008-1.792-8.952-2.832c-0.936-0.328-1.856-0.672-2.784-1.016c-4.616-1.744-9.136-3.688-13.52-5.864
	c0,0-0.008,0-0.016-0.008V392l64,40L304,392z"/>
<path style="fill:#8C8A85;" d="M240,96c39.416,0,73.248-23.776,88.032-57.744c0.008-0.008,0.008-0.016,0.016-0.032
	c-0.224-0.168-0.456-0.328-0.68-0.496c-1.688-1.296-3.416-2.536-5.16-3.76c-0.856-0.6-1.72-1.184-2.592-1.76
	c-1.624-1.088-3.272-2.152-4.944-3.168c-1.16-0.704-2.344-1.368-3.52-2.04c-1.464-0.84-2.928-1.688-4.424-2.48
	c-2.728-1.44-5.488-2.8-8.312-4.064c-0.072-0.032-0.144-0.072-0.216-0.104c-2.584-1.152-5.248-2.144-7.904-3.144
	c-1.496-0.56-2.976-1.136-4.496-1.648c-2.248-0.76-4.536-1.432-6.832-2.08c-2.096-0.584-4.2-1.136-6.328-1.624
	c-2-0.472-4-0.92-6.032-1.296c-2.696-0.504-5.44-0.896-8.184-1.248c-1.616-0.208-3.224-0.472-4.856-0.624
	C249.096,8.264,244.584,8,240,8s-9.096,0.264-13.568,0.688c-1.632,0.152-3.24,0.416-4.856,0.624
	c-2.752,0.352-5.488,0.744-8.184,1.248c-2.032,0.384-4.032,0.832-6.032,1.296c-2.128,0.496-4.24,1.04-6.328,1.624
	c-2.296,0.648-4.584,1.32-6.832,2.08c-1.52,0.512-3,1.088-4.496,1.648c-2.656,1-5.32,1.992-7.904,3.144
	c-0.072,0.032-0.144,0.072-0.216,0.104c-2.824,1.264-5.584,2.624-8.304,4.056c-1.496,0.792-2.96,1.64-4.424,2.48
	c-1.176,0.672-2.36,1.336-3.52,2.04c-1.672,1.024-3.312,2.088-4.944,3.168c-0.872,0.584-1.736,1.168-2.592,1.76
	c-1.744,1.216-3.472,2.464-5.16,3.76c-0.224,0.168-0.456,0.32-0.68,0.496c0.008,0.008,0.008,0.016,0.016,0.032
	C166.752,72.224,200.584,96,240,96z"/>
<g>
	<circle style="fill:#4B413A;" cx="184" cy="192" r="16"/>
	<circle style="fill:#4B413A;" cx="296" cy="192" r="16"/>
	<path style="fill:#4B413A;" d="M424,384H312v-34.184c43.136-23.304,73.784-66.84,79.144-117.816H400c22.056,0,40-17.944,40-40
		s-17.944-40-40-40h-8c0-48.672-23.08-91.96-58.776-119.8c-0.104-0.088-0.168-0.216-0.272-0.296c-0.848-0.656-1.744-1.216-2.6-1.856
		c-2.392-1.776-4.784-3.552-7.28-5.192c-1.408-0.92-2.856-1.736-4.288-2.608c-2.936-1.792-5.896-3.536-8.96-5.128
		c-3.248-1.696-6.528-3.312-9.872-4.76c-1.336-0.576-2.72-1.048-4.072-1.592c-3.008-1.2-6.04-2.344-9.112-3.344
		c-1.456-0.472-2.936-0.888-4.416-1.312c-3.08-0.896-6.176-1.704-9.312-2.4c-1.512-0.336-3.032-0.664-4.56-0.952
		c-3.296-0.624-6.616-1.12-9.96-1.528c-1.4-0.168-2.776-0.384-4.184-0.52C249.584,0.28,244.816,0,240,0s-9.584,0.28-14.32,0.728
		c-1.408,0.136-2.784,0.344-4.184,0.52c-3.344,0.408-6.664,0.896-9.96,1.528c-1.528,0.288-3.048,0.616-4.56,0.952
		c-3.136,0.696-6.24,1.504-9.312,2.4c-1.48,0.432-2.96,0.84-4.416,1.312c-3.08,1-6.104,2.144-9.112,3.344
		c-1.352,0.536-2.736,1.016-4.072,1.592c-3.344,1.448-6.624,3.064-9.872,4.76c-3.064,1.592-6.024,3.336-8.96,5.128
		c-1.424,0.872-2.88,1.68-4.288,2.608c-2.496,1.64-4.888,3.408-7.28,5.192c-0.856,0.64-1.752,1.2-2.6,1.856
		c-0.112,0.088-0.168,0.208-0.272,0.296C111.08,60.04,88,103.328,88,152h-8c-22.056,0-40,17.944-40,40s17.944,40,40,40h8.856
		c5.36,50.976,36.008,94.512,79.144,117.816V384H56c-30.872,0-56,25.12-56,56v40h16v-40c0-22.056,17.944-40,40-40h117.704
		l62.056,38.784c1.296,0.808,2.768,1.216,4.24,1.216c1.472,0,2.944-0.408,4.24-1.216L306.296,400H424c22.056,0,40,17.944,40,40v40
		h16v-40C480,409.12,454.872,384,424,384z M400,168c13.232,0,24,10.768,24,24s-10.768,24-24,24h-8v-48H400z M162.2,40.616
		c2-1.408,4.064-2.688,6.12-3.976c1.376-0.856,2.752-1.72,4.168-2.536c1.784-1.032,3.584-2.008,5.4-2.952
		c2.016-1.04,4.064-2.024,6.136-2.96c1.424-0.648,2.832-1.328,4.28-1.928c3.624-1.496,7.312-2.88,11.088-4.064
		c0.44-0.136,0.896-0.232,1.336-0.368c3.464-1.048,6.992-1.952,10.568-2.728c1.136-0.248,2.28-0.448,3.424-0.664
		c3.032-0.576,6.088-1.04,9.184-1.408c1.176-0.136,2.344-0.296,3.52-0.408C231.576,16.256,235.76,16,240,16
		c4.24,0,8.424,0.256,12.568,0.64c1.184,0.112,2.352,0.264,3.52,0.408c3.096,0.368,6.16,0.832,9.184,1.408
		c1.144,0.216,2.288,0.416,3.424,0.664c3.576,0.768,7.104,1.672,10.568,2.728c0.44,0.136,0.896,0.232,1.336,0.368
		c3.776,1.184,7.464,2.568,11.088,4.064c1.44,0.6,2.856,1.28,4.28,1.928c2.072,0.944,4.12,1.92,6.136,2.96
		c1.816,0.944,3.624,1.92,5.4,2.952c1.408,0.808,2.784,1.672,4.168,2.536c2.056,1.288,4.12,2.568,6.12,3.976
		c0.064,0.04,0.12,0.088,0.176,0.128C302.872,69.648,272.92,88,240,88s-62.872-18.352-77.976-47.256
		C162.08,40.704,162.136,40.656,162.2,40.616z M104,152c0-40.168,17.608-76.208,45.384-101.128C167.672,83.432,202.152,104,240,104
		s72.328-20.568,90.616-53.128C358.392,75.792,376,111.832,376,152v8v56c-22.056,0-40,17.944-40,40c0,13.232-10.768,24-24,24
		h-16.808c-3.72-18.232-19.872-32-39.192-32h-32c-19.32,0-35.48,13.768-39.192,32H168c-13.232,0-24-10.768-24-24
		c0-22.056-17.944-40-40-40v-56V152z M80,216c-13.232,0-24-10.768-24-24s10.768-24,24-24h8v48H80z M105.04,232.104
		C117.784,232.664,128,243.12,128,256c0,22.056,17.944,40,40,40h24c4.424,0,8-3.584,8-8c0-13.232,10.768-24,24-24h32
		c13.232,0,24,10.768,24,24c0,4.416,3.576,8,8,8h24c22.056,0,40-17.944,40-40c0-12.88,10.216-23.336,22.96-23.896
		c-5.536,46.64-34.76,86.016-75.28,105.912c-4.256,2.088-8.584,3.928-12.984,5.544c-0.52,0.192-1.032,0.384-1.552,0.568
		c-4.448,1.576-8.96,2.904-13.504,4c-0.392,0.096-0.784,0.216-1.184,0.304c-20.048,4.632-40.864,4.632-60.904,0
		c-0.4-0.088-0.784-0.208-1.184-0.304c-4.552-1.096-9.056-2.424-13.504-4c-0.52-0.184-1.032-0.376-1.552-0.568
		c-4.392-1.616-8.728-3.464-12.984-5.544C139.8,318.12,110.584,278.752,105.04,232.104z M197.144,361.744
		c0.984,0.288,1.984,0.496,2.968,0.768c3.648,0.992,7.32,1.944,11.072,2.664c1.168,0.224,2.36,0.344,3.536,0.544
		c3.608,0.608,7.216,1.208,10.904,1.552c0.968,0.088,1.936,0.072,2.896,0.144c3.8,0.288,7.608,0.584,11.48,0.584
		c3.872,0,7.68-0.296,11.48-0.584c0.968-0.072,1.936-0.056,2.896-0.144c3.688-0.344,7.296-0.944,10.904-1.552
		c1.176-0.2,2.36-0.312,3.536-0.544c3.752-0.728,7.416-1.672,11.072-2.664c0.984-0.272,1.984-0.472,2.968-0.768
		c3.976-1.168,7.856-2.552,11.688-4.04c0.48-0.184,0.976-0.312,1.448-0.504v30.36l-56,35l-56-35V357.2
		c0.48,0.192,0.976,0.312,1.448,0.504C189.288,359.192,193.168,360.576,197.144,361.744z"/>
</g>
<g>
</g>
<g>
</g>
<g>
</g>
<g>
</g>
<g>
</g>
<g>
</g>
<g>
</g>
<g>
</g>
<g>
</g>
<g>
</g>
<g>
</g>
<g>
</g>
<g>
</g>
<g>
</g>
<g>
</g>
</svg>
