<svg id="Layer_1" enable-background="new 0 0 256 256" height="512" viewBox="0 0 256 256" width="512" xmlns="http://www.w3.org/2000/svg"><g><path d="m210.609 243.733v-35.457c0-14.853-12.041-26.894-26.894-26.894h-111.43c-14.853 0-26.894 12.041-26.894 26.894v35.457c0 2.209 1.791 4 4 4h157.217c2.21 0 4.001-1.791 4.001-4z" fill="#4671c6"/><path d="m127.945 141.89h-28.635v38.564c0 15.83 12.833 28.663 28.663 28.663 15.83 0 28.663-12.833 28.663-28.663v-38.564z" fill="#f9cfcf"/><path d="m128 159.829c-39.349 0-71.247-31.898-71.247-71.247v-29.842c0-9.891 8.018-17.909 17.909-17.909h124.585v47.75c0 39.349-31.898 71.248-71.247 71.248z" fill="#4671c6"/><path d="m188.681 93.398v-5.682c0-33.211-27.168-60.135-60.681-60.135-33.513 0-60.681 26.923-60.681 60.135v5.682c-10.537-.214-18.897 8.18-18.897 18.327 0 10.835 9.459 19.405 20.499 18.237 6.262 26.606 30.328 46.427 59.079 46.427 28.752 0 52.817-19.824 59.079-46.427 11.026 1.166 20.499-7.388 20.499-18.237 0-10.152-8.366-18.541-18.897-18.327z" fill="#f9cfcf"/><path d="m67.319 8.282h95.202c20.283 0 36.726 16.443 36.726 36.726 0 20.283-16.443 36.726-36.726 36.726h-62.315c-18.163 0-32.887-14.724-32.887-32.887z" fill="#4671c6"/><path d="m160.213 124.284c-4.764 0-8.627-3.862-8.627-8.627v-9.202c0-4.764 3.862-8.627 8.627-8.627 4.764 0 8.627 3.862 8.627 8.627v9.202c0 4.764-3.862 8.627-8.627 8.627z" fill="#3762cc"/><path d="m95.771 124.284c-4.764 0-8.627-3.862-8.627-8.627v-9.202c0-4.764 3.862-8.627 8.627-8.627 4.764 0 8.627 3.862 8.627 8.627v9.202c0 4.764-3.863 8.627-8.627 8.627z" fill="#3762cc"/><g><path d="m127.971 146.521c-2.421 0-4.528-.283-6.443-.866-3.18-.968-5.965-2.593-8.056-4.699-.777-.784-.772-2.05.011-2.828.786-.778 2.051-.772 2.829.011 1.625 1.638 3.832 2.914 6.38 3.689 1.532.466 3.259.693 5.279.693s3.746-.227 5.278-.693c2.55-.776 4.756-2.051 6.38-3.689.776-.785 2.044-.79 2.828-.012s.79 2.044.012 2.828c-2.089 2.106-4.874 3.731-8.056 4.7-1.915.582-4.022.866-6.442.866z" fill="#3762cc"/></g><path d="m183.715 179.382h-25.081c.002-1.415.003-4.007.002-8.853 14.508-8.02 25.544-21.653 29.979-38.468 5.229.125 10.339-1.764 14.231-5.267 4.278-3.85 6.731-9.342 6.731-15.07 0-5.482-2.166-10.624-6.1-14.479-.798-.781-1.654-1.48-2.549-2.112.196-2.199.317-4.398.317-6.552v-43.573c0-21.354-17.372-38.726-38.726-38.726h-95.201c-1.104 0-2 .896-2 2v32.896c-6.458 3.44-10.565 10.194-10.565 17.562v29.842c0 2.154.121 4.353.317 6.551-.895.632-1.751 1.331-2.548 2.112-3.935 3.854-6.101 8.997-6.101 14.48 0 5.728 2.454 11.221 6.733 15.071 3.892 3.503 9 5.37 14.229 5.266 4.429 16.793 15.443 30.413 29.924 38.437 0 0 0 0-.001 0 0 4.865 0 7.465.002 8.884h-25.023c-15.932 0-28.894 12.962-28.894 28.894v35.457c0 3.309 2.691 6 6 6h157.217c3.309 0 6-2.691 6-6v-35.457c0-15.933-12.962-28.895-28.893-28.895zm-114.397-136.964v-32.136h93.203c19.147 0 34.726 15.578 34.726 34.726 0 19.095-15.539 34.726-34.726 34.726h-62.315c-16.867 0-30.888-13.743-30.888-30.887zm119.66 30.857c3.5-3.277 6.278-7.105 8.27-11.143v26.45c0 1.461-.049 2.943-.144 4.433-2.024-.852-4.182-1.391-6.421-1.56v-3.739c-.001-4.883-.618-9.905-1.705-14.441zm-130.225-14.535c0-5.136 2.499-9.902 6.565-12.86v2.967c0 5.922 1.54 11.661 4.182 16.554-4.524 11.636-4.182 21.048-4.182 26.053-2.239.169-4.397.708-6.421 1.56-.095-1.489-.144-2.972-.144-4.432zm12.116 70.764c-.236-1.002-1.185-1.639-2.157-1.531-4.702.496-9.398-1.016-12.882-4.151-3.437-3.093-5.408-7.503-5.408-12.098 0-4.399 1.74-8.527 4.899-11.623 2.947-2.887 7.276-4.786 11.955-4.704h.002c.007 0 .015-.002.022-.002.916.025 1.783-.636 1.979-1.601.065-.322.04-5.751.04-6.079 0-6.457 1.033-12.354 2.912-18.039 5.172 6.925 12.893 11.917 21.937 13.524 4.197.736.825.534 68.354.534 8.007 0 16.187-2.545 22.992-7.574.013.064.027.128.04.191.767 3.837 1.127 7.768 1.127 11.364 0 .329-.025 5.758.04 6.079.401 1.971 2.391 1.531 4.004 1.69 3.885.377 7.411 2.126 9.954 4.618 3.159 3.096 4.899 7.223 4.899 11.622 0 4.596-1.971 9.004-5.406 12.096-3.486 3.136-8.185 4.649-12.884 4.153-1.001-.115-1.926.55-2.157 1.531-6.22 26.428-29.713 44.885-57.131 44.885s-50.911-18.457-57.131-44.885zm137.739 114.229c0 1.103-.897 2-2 2h-18.434v-22.794c0-1.104-.896-2-2-2s-2 .896-2 2v22.794h-109.946v-22.904c0-1.104-.896-2-2-2s-2 .896-2 2v22.904h-20.836c-1.103 0-2-.897-2-2v-35.457c0-13.727 11.167-24.894 24.894-24.894h27.048c.542 0 1.06-.22 1.437-.609s.58-.914.563-1.455c-.034-.86-.024-1.885-.024-8.788 8.133 3.771 17.189 5.86 26.692 5.86 9.481 0 18.517-2.079 26.636-5.834 0 6.875.01 7.902-.024 8.763-.018.541.186 1.066.563 1.456.377.389.895.608 1.437.608h27.104c13.727 0 24.894 11.167 24.894 24.894v35.456z" fill="#3762cc"/></g></svg>