<?xml version="1.0" encoding="iso-8859-1"?>
<!-- Generator: Adobe Illustrator 19.0.0, SVG Export Plug-In . SVG Version: 6.00 Build 0)  -->
<svg version="1.1" id="Layer_1" xmlns="http://www.w3.org/2000/svg" xmlns:xlink="http://www.w3.org/1999/xlink" x="0px" y="0px"
	 viewBox="0 0 512 512" style="enable-background:new 0 0 512 512;" xml:space="preserve">
<rect x="351.32" y="194.88" style="fill:#EC8087;" width="99.56" height="257.52"/>
<path style="fill:#4EBF8C;" d="M128.246,392.803c-74.152,11.855-84.644,78.169-85.702,106.433C42.283,506.214,47.884,512,54.866,512
	h73.38V392.803z"/>
<path style="opacity:0.08;enable-background:new    ;" d="M117.103,395.121C86.471,425.104,66.827,466.259,64.767,512h63.48V392.803
	C124.353,393.426,120.653,394.212,117.103,395.121z"/>
<path style="fill:#4EBF8C;" d="M383.754,392.803c74.152,11.855,84.644,78.169,85.702,106.433c0.261,6.978-5.34,12.763-12.322,12.763
	h-73.38V392.803z"/>
<path style="opacity:0.08;enable-background:new    ;" d="M394.897,395.121c30.632,29.983,50.276,71.138,52.336,116.879h-63.479
	V392.803C387.647,393.426,391.347,394.212,394.897,395.121z"/>
<path style="fill:#4EBF8C;" d="M430.737,512c0-96.505-78.232-174.737-174.737-174.737S81.263,415.495,81.263,512H430.737z"/>
<g>
	<path style="opacity:0.3;fill:#FFFFFF;enable-background:new    ;" d="M256,337.263c-41.037,0-78.765,14.153-108.584,37.835
		c6.855,6.069,15.065,14.087,22.664,32.257c10.298,24.621,16.08,59.776,17.24,104.645h137.359
		c1.16-44.869,6.942-80.022,17.24-104.645c7.6-18.17,15.81-26.188,22.664-32.257C334.765,351.416,297.037,337.263,256,337.263z"/>
	<path style="fill:#FFFFFF;" d="M312.945,346.762h-113.89c-8.404,2.896-16.515,6.417-24.283,10.503
		c17.16,17.162,41.755,53.24,44.269,154.735h73.917c2.514-101.496,27.109-137.573,44.269-154.735
		C329.459,353.178,321.349,349.657,312.945,346.762z"/>
</g>
<path style="opacity:0.1;enable-background:new    ;" d="M256,337.263c-44.613,0-85.313,16.728-116.192,44.243
	c29.226,30.678,70.476,49.797,116.192,49.797l0,0c45.716,0,86.966-19.119,116.192-49.797
	C341.313,353.991,300.613,337.263,256,337.263z"/>
<g>
	<circle style="fill:#EC8087;" cx="256" cy="194.88" r="194.88"/>
	<path style="fill:#EC8087;" d="M153.609,482.289H68.193c-3.906,0-7.072-3.166-7.072-7.072V194.879h99.561v280.338
		C160.682,479.123,157.515,482.289,153.609,482.289z"/>
</g>
<path style="opacity:0.1;enable-background:new    ;" d="M94.445,438.803c-4.142,0-7.5-3.357-7.5-7.5v-51.68
	c0-4.142,3.358-7.5,7.5-7.5s7.5,3.358,7.5,7.5v51.68C101.945,435.445,98.587,438.803,94.445,438.803z"/>
<path style="fill:#F9D7C3;" d="M119.648,215.396c0,17.594-14.262,31.856-31.856,31.856s-31.856-14.262-31.856-31.856v-15.882
	c0-17.594,14.263-31.856,31.856-31.856c17.594,0,31.856,14.262,31.856,31.856V215.396z"/>
<g style="opacity:0.15;">
	<path style="fill:#EC8087;" d="M119.648,215.396c0,17.594-14.262,31.856-31.856,31.856s-31.856-14.262-31.856-31.856v-15.882
		c0-17.594,14.263-31.856,31.856-31.856c17.594,0,31.856,14.262,31.856,31.856V215.396z"/>
</g>
<path style="opacity:0.1;enable-background:new    ;" d="M87.792,167.657c-3.475,0-6.817,0.564-9.948,1.593
	c-0.62,5.871-0.945,11.831-0.945,17.866v52.041c0,2.085,0.051,4.158,0.127,6.225c3.363,1.208,6.987,1.87,10.766,1.87
	c17.594,0,31.856-14.262,31.856-31.856v-15.882C119.648,181.92,105.386,167.657,87.792,167.657z"/>
<path style="fill:#F9D7C3;" d="M392.352,215.396c0,17.594,14.262,31.856,31.856,31.856s31.856-14.262,31.856-31.856v-15.882
	c0-17.594-14.263-31.856-31.856-31.856s-31.856,14.262-31.856,31.856V215.396z"/>
<g style="opacity:0.15;">
	<path style="fill:#EC8087;" d="M392.352,215.396c0,17.594,14.262,31.856,31.856,31.856s31.856-14.262,31.856-31.856v-15.882
		c0-17.594-14.263-31.856-31.856-31.856s-31.856,14.262-31.856,31.856V215.396z"/>
</g>
<path style="opacity:0.1;enable-background:new    ;" d="M424.208,167.657c3.475,0,6.817,0.564,9.948,1.593
	c0.62,5.871,0.945,11.831,0.945,17.866v52.041c0,2.085-0.051,4.158-0.126,6.225c-3.363,1.208-6.987,1.87-10.766,1.87
	c-17.594,0-31.856-14.262-31.856-31.856v-15.882C392.352,181.92,406.614,167.657,424.208,167.657z"/>
<g>
	<circle style="fill:#4EBF8C;" cx="440.52" cy="241.37" r="22.967"/>
	<circle style="fill:#4EBF8C;" cx="71.48" cy="241.37" r="22.967"/>
</g>
<path style="fill:#F9D7C3;" d="M256,18.909L256,18.909c-92.899,0-168.208,75.309-168.208,168.208v52.041
	c0,92.898,75.309,168.208,168.208,168.208l0,0c92.899,0,168.208-75.309,168.208-168.208v-52.041
	C424.208,94.218,348.899,18.909,256,18.909z"/>
<path style="fill:#EC8087;" d="M266.088,11.332H256c-88.552,0-178.141,75.242-167.719,162.866
	c45.513-0.138,187.606-5.077,226.464-78.258c13.848,29.76,57.225,69.376,109.197,81.767
	C430.737,90.262,355.828,11.332,266.088,11.332z"/>
<g style="opacity:0.1;">
	<path d="M160.673,143.277c-3.557,0-6.714-2.539-7.371-6.163c-0.739-4.075,1.965-7.979,6.041-8.718
		c17.077-3.097,42.085-9.072,64.251-19.956c23.155-11.369,38.201-25.561,44.719-42.18c1.512-3.856,5.865-5.758,9.72-4.244
		c3.856,1.513,5.756,5.864,4.244,9.721c-18.226,46.471-83.168,64.692-120.257,71.419
		C161.568,143.238,161.117,143.277,160.673,143.277z"/>
	<path d="M128.246,113.925c-4.142,0-7.5-3.357-7.5-7.5s3.358-7.5,7.5-7.5c25.577,0,56.94-10.407,74.574-24.745
		c3.214-2.614,7.938-2.127,10.551,1.088c2.613,3.214,2.126,7.938-1.088,10.551C191.93,102.367,157.373,113.925,128.246,113.925z"/>
</g>
<g>
	<path style="fill:#394049;" d="M163.277,217.306c-4.142,0-7.5-3.357-7.5-7.5c0-6.437-5.237-11.673-11.673-11.673
		s-11.673,5.236-11.673,11.673c0,4.143-3.358,7.5-7.5,7.5c-4.142,0-7.5-3.357-7.5-7.5c0-14.707,11.966-26.673,26.673-26.673
		s26.673,11.966,26.673,26.673C170.777,213.948,167.419,217.306,163.277,217.306z"/>
	<path style="fill:#394049;" d="M387.07,217.306c-4.142,0-7.5-3.357-7.5-7.5c0-6.437-5.237-11.673-11.673-11.673
		s-11.673,5.236-11.673,11.673c0,4.143-3.358,7.5-7.5,7.5s-7.5-3.357-7.5-7.5c0-14.707,11.966-26.673,26.673-26.673
		s26.673,11.966,26.673,26.673C394.57,213.948,391.212,217.306,387.07,217.306z"/>
</g>
<g>
	<path style="fill:#EC8087;" d="M160.682,250.421h-33.156c-4.142,0-7.5-3.357-7.5-7.5s3.358-7.5,7.5-7.5h33.156
		c4.142,0,7.5,3.357,7.5,7.5C168.182,247.064,164.824,250.421,160.682,250.421z"/>
	<path style="fill:#EC8087;" d="M384.475,250.421h-33.156c-4.142,0-7.5-3.357-7.5-7.5s3.358-7.5,7.5-7.5h33.156
		c4.142,0,7.5,3.357,7.5,7.5C391.975,247.064,388.617,250.421,384.475,250.421z"/>
	<path style="fill:#EC8087;" d="M256,250.746c-9.919,0-19.384-4.777-25.319-12.778c-2.468-3.327-1.771-8.024,1.555-10.492
		c3.327-2.468,8.024-1.771,10.492,1.555c3.166,4.268,8.003,6.716,13.272,6.716c5.269,0,10.106-2.447,13.272-6.715
		c2.468-3.327,7.164-4.022,10.492-1.556c3.327,2.467,4.023,7.165,1.556,10.491C275.384,245.969,265.919,250.746,256,250.746z"/>
</g>
<g>
</g>
<g>
</g>
<g>
</g>
<g>
</g>
<g>
</g>
<g>
</g>
<g>
</g>
<g>
</g>
<g>
</g>
<g>
</g>
<g>
</g>
<g>
</g>
<g>
</g>
<g>
</g>
<g>
</g>
</svg>
