<svg id="Capa_1" enable-background="new 0 0 497 497" height="512" viewBox="0 0 497 497" width="512" xmlns="http://www.w3.org/2000/svg"><g><path d="m427.755 314.907c-30.798-.233-55.619 25.319-55.619 56.117v115.146c0 5.981 4.849 10.83 10.83 10.83h12.269c5.981 0 10.83-4.849 10.83-10.83v-115.547c0-11.516 8.938-21.338 20.446-21.773 12.099-.458 22.088 9.253 22.088 21.252 0 9.422 7.68 17.049 17.122 16.964 9.539-.086 16.962-8.385 16.799-17.923-.511-29.854-24.844-54.01-54.765-54.236z" fill="#ed9b83"/><path d="m129.452 110.063c-14.938 24.934-23.54 54.08-23.54 85.201 0 6.997.44 13.894 1.283 20.667h330.01c.843-6.773 1.283-13.669 1.283-20.667 0-31.121-8.601-60.267-23.54-85.201z" fill="#b2b0bc"/><path d="m222.585 458.49h53.914v-75.935l-53.914 19.683z" fill="#4f4c5f"/><path d="m374.931 397.351c-10.934 13.798-31.049 16.209-44.936 5.206l-16.829-13.335 3.175-39.784 36.544-10.368 16.839 13.345c13.848 10.974 16.17 31.09 5.207 44.936z" fill="#ffd3bc"/><g><path d="m352.886 339.071-39.72 50.152-60.829-48.193c-13.847-10.973-16.179-31.089-5.206-44.936s31.089-16.169 44.936-5.206z" fill="#ff8997"/></g><path d="m288.179 358.409c0 5.432-.6 10.717-1.742 15.795l-70.13 28.033-70.13-28.033c-1.142-5.078-1.742-10.363-1.742-15.795 0-39.7 32.181-71.871 71.871-71.871 39.692 0 71.873 32.171 71.873 71.871z" fill="#ff6f7f"/><path d="m286.437 374.205h-140.259c3.362 14.976 11.397 28.18 22.492 38.009v46.277h53.914v-28.491c31.447-2.721 57.094-25.684 63.853-55.795z" fill="#5c586f"/><path d="m190.792 365.689c-1.579-2.168-2.596-4.563-3.078-7.027l-26.918-16.67-31.678 35.494c2.499 8.521 6.492 16.771 12.022 24.364 9.983 13.71 29.193 16.722 42.901 6.749 13.712-9.992 16.734-29.201 6.751-42.91z" fill="#ffd3bc"/><path d="m201.459 297.884c-9.981-13.719-29.19-16.741-42.901-6.749-27.827 20.254-38.589 55.151-29.438 86.351l58.595-18.824c-1.312-6.596 1.202-13.65 6.996-17.877 13.709-9.982 16.73-29.191 6.748-42.901z" fill="#ff8997"/><path d="m169.214 167.505c0-20.029 3.281-39.326 9.341-57.443h-49.103c-14.938 24.934-23.54 54.08-23.54 85.201 0 6.997.44 13.894 1.283 20.667h68.602c-4.288-15.457-6.583-31.684-6.583-48.425z" fill="#a19dae"/><circle cx="405.028" cy="215.93" fill="#ffbe9c" r="37.898"/><circle cx="272.201" cy="195.263" fill="#ffd3bc" r="131.843"/><path d="m385.12 42.572c-6.178-25.005-28.614-42.572-54.371-42.572h-117.097c-25.757 0-48.193 17.567-54.371 42.572l-10.067 40.741 122.986 26.75 122.986-26.75z" fill="#ff6f7f"/><g><g><path d="m219.379 200.439c-4.143 0-7.5-3.358-7.5-7.5 0-4.259-3.465-7.724-7.725-7.724-4.259 0-7.724 3.465-7.724 7.724 0 4.142-3.357 7.5-7.5 7.5s-7.5-3.358-7.5-7.5c0-12.53 10.193-22.724 22.724-22.724s22.725 10.194 22.725 22.724c0 4.142-3.357 7.5-7.5 7.5z" fill="#423e4f"/></g><g><path d="m355.471 200.439c-4.143 0-7.5-3.358-7.5-7.5 0-4.259-3.465-7.724-7.725-7.724s-7.725 3.465-7.725 7.724c0 4.142-3.357 7.5-7.5 7.5s-7.5-3.358-7.5-7.5c0-12.53 10.194-22.724 22.725-22.724s22.725 10.194 22.725 22.724c0 4.142-3.357 7.5-7.5 7.5z" fill="#423e4f"/></g></g><path d="m272.201 242.233c18.052 22.565 44.65 13.214 58.678 5.803 3.402-1.797 3.645-6.522.492-8.728-8.041-5.626-12.723-17.947-19.365-24.137-10.319-9.617-28.097-15.46-39.805-4.845-11.708-10.615-29.485-4.772-39.804 4.845-6.642 6.19-11.324 18.511-19.365 24.137-3.153 2.206-2.91 6.931.492 8.728 14.027 7.411 40.625 16.762 58.677-5.803z" fill="#b2b0bc"/><path d="m276.499 458.49h-53.914v18.186c0 11.225 9.099 20.324 20.324 20.324h31.771c10.74 0 19.447-8.707 19.447-19.447 0-10.528-7.1-19.063-17.628-19.063z" fill="#e7886e"/><g><path d="m94.344 340.52c-4.143 0-7.5-3.358-7.5-7.5v-23.368l-13.541 5.505c-4.923 2.004-10.324-1.627-10.324-6.948v-34.513c0-4.142 3.357-7.5 7.5-7.5s7.5 3.358 7.5 7.5v23.368l13.541-5.505c4.924-2.004 10.324 1.627 10.324 6.948v34.513c0 4.142-3.357 7.5-7.5 7.5z" fill="#423e4f"/></g><g><path d="m75.499 377.532-16.523-16.524-5.683 13.468c-2.068 4.899-8.449 6.15-12.214 2.388l-24.405-24.405c-2.929-2.929-2.929-7.678 0-10.607 2.929-2.928 7.678-2.93 10.606 0l16.524 16.524 5.683-13.468c2.068-4.9 8.452-6.15 12.213-2.388l24.406 24.405c2.929 2.929 2.929 7.678 0 10.607-2.929 2.928-7.677 2.929-10.607 0z" fill="#423e4f"/></g><path d="m222.585 458.49h-53.914v18.186c0 11.225 9.099 20.324 20.324 20.324h31.771c10.74 0 19.447-8.707 19.447-19.447 0-10.528-7.1-19.063-17.628-19.063z" fill="#ed9b83"/><path d="m275.59 0h-61.938c-25.757 0-48.193 17.567-54.371 42.572l-10.067 40.741 36.793 8.002c18.161-39.235 49.914-71.475 89.583-91.315z" fill="#fc5c70"/><path d="m260.38 326.573c-54.845-33.65-91.166-92.318-91.166-159.067 0-24.461 4.878-47.837 13.757-69.295-22.225 20.444-37.407 48.422-41.5 79.883-.69-.039-1.388-.062-2.098-.062-20.93 0-37.898 16.968-37.898 37.898s16.967 37.898 37.898 37.898c4.981 0 9.448-.971 13.373-2.717 19.441 41.505 59.873 71.217 107.634 75.462z" fill="#ffbe9c"/><path d="m409.745 83.313h-275.089c-18.325 0-33.181 14.856-33.181 33.181v5.308c0 8.29 6.72 15.01 15.01 15.01h311.43c8.29 0 15.01-6.72 15.01-15.01v-5.308c.001-18.326-14.855-33.181-33.18-33.181z" fill="#ff8997"/><path d="m189.95 83.313h-55.294c-18.325 0-33.181 14.855-33.181 33.181v5.308c0 8.29 6.72 15.011 15.01 15.011h55.347c3.245-18.927 9.437-36.905 18.118-53.5z" fill="#ff6f7f"/></g></svg>