<?xml version="1.0" encoding="iso-8859-1"?>
<!-- Generator: Adobe Illustrator 19.0.0, SVG Export Plug-In . SVG Version: 6.00 Build 0)  -->
<svg version="1.1" id="Capa_1" xmlns="http://www.w3.org/2000/svg" xmlns:xlink="http://www.w3.org/1999/xlink" x="0px" y="0px"
	 viewBox="0 0 512 512" style="enable-background:new 0 0 512 512;" xml:space="preserve">
<path style="fill:#F4A14E;" d="M257.81,87.568c-46.903,0-96.752-15.345-96.752-43.784S210.906,0,257.81,0
	s96.752,15.345,96.752,43.784C354.561,72.223,304.713,87.568,257.81,87.568z M257.81,15.689c-50.224,0-81.062,16.363-81.062,28.095
	s30.838,28.095,81.062,28.095s81.062-16.364,81.062-28.095S308.034,15.689,257.81,15.689z"/>
<path style="fill:#E5E1DC;" d="M427.711,328.956h40.322c5.92,0,11.276,2.395,15.167,6.286c3.87,3.87,6.276,9.236,6.276,15.156
	c0,11.84-9.602,21.442-21.442,21.442h-18.388c5.92,0,11.276,2.395,15.167,6.286c3.87,3.87,6.276,9.236,6.276,15.156
	c0,11.84-9.602,21.442-21.442,21.442h-20.208h-0.002c5.92,0,11.275,2.395,15.166,6.286c3.87,3.87,6.276,9.236,6.276,15.156
	c0,11.84-9.602,21.442-21.442,21.442h-64.756h-217.36H82.563c-11.84,0-21.442-9.602-21.442-21.442c0-5.92,2.406-11.286,6.276-15.156
	c3.891-3.891,9.246-6.286,15.166-6.286H62.355c-11.84,0-21.442-9.602-21.442-21.442c0-5.92,2.406-11.286,6.276-15.156
	c3.891-3.891,9.246-6.286,15.166-6.286H43.967c-11.84,0-21.442-9.602-21.442-21.442c0-5.92,2.406-11.286,6.276-15.156
	c3.891-3.891,9.246-6.286,15.166-6.286h45.552"/>
<path style="fill:#FFD15C;" d="M353.822,71.668c-24.35-11.621-44.746-12.342-58.637-10.397c-12.572,1.757-19.811,5.69-19.811,5.69
	c-10.104-10.104-25.982-13.859-44.412-11.642c-55.07,6.621-132.879,66.638-146.99,170.095
	C65.146,363.472,150.35,431.23,150.35,431.23l55.813-0.397l155.2-1.109C508.478,282.618,422.856,104.606,353.822,71.668z"/>
<g>
	<path style="fill:#EDBB4C;" d="M317.129,166.841l-1.506,36.881l-10.345-61.398c0,0-0.209-45.667-29.904-75.362
		c0,0,7.238-3.933,19.811-5.69C295.185,61.272,326.083,113.769,317.129,166.841z"/>
	<path style="fill:#EDBB4C;" d="M179.88,213.806c27.99,46.326,30.155,140.557,26.285,217.027l-55.813,0.397
		c0,0-85.204-67.758-66.377-205.815c14.11-103.456,91.919-163.474,146.99-170.095C230.965,55.321,128.314,128.465,179.88,213.806z"
		/>
</g>
<path style="fill:#34ABE0;" d="M364.807,512v-47.968c0-38.105-12.363-72.569-32.299-97.4l-153.004,0.01
	c-19.957,24.831-32.31,59.296-32.31,97.39V512"/>
<path style="fill:#279FC9;" d="M214.018,366.642l118.49-0.008c-0.001-0.001-0.001-0.001-0.002-0.002l-153.004,0.01
	c-19.957,24.831-32.31,59.296-32.31,97.39V512h34.515v-47.968C181.708,425.938,194.061,391.473,214.018,366.642z"/>
<path style="fill:#FFDAC5;" d="M309.339,377.017v43.962c0,13.294-10.784,24.078-24.078,24.078h-58.522
	c-13.294,0-24.078-10.784-24.078-24.078v-43.962H309.339z"/>
<path style="fill:#EFC1AB;" d="M309.339,377.017v23.492c-16.212,5.47-34.287,8.253-53.334,8.253
	c-19.057,0-37.132-2.782-53.344-8.253v-23.492H309.339z"/>
<path style="fill:#FFDAC5;" d="M382.774,227.422v50.29c0,70.006-56.765,107.557-126.771,107.557
	c-70.017,0-126.781-37.55-126.781-107.557v-39.286c9.623-8.148,20.898-14.225,32.822-18.817c5.826-2.27,11.809-4.173,17.834-5.805
	c28.116-7.615,57.11-9.163,75.1-11.924c40.793-6.276,48.637-43.931,48.637-43.931s1.443-6.046,1.663-15.627
	C305.279,142.323,327.715,205.948,382.774,227.422z"/>
<path style="fill:#EFC1AB;" d="M256.003,385.27c-70.017,0-126.781-37.55-126.781-107.557v-39.286
	c9.623-8.148,20.898-14.225,32.822-18.817C155.381,270.81,169.293,364.926,256.003,385.27z"/>
<g>
	<path style="fill:#313344;" d="M197.19,285.813c-4.332,0-7.845-3.512-7.845-7.845V261.66c0-4.332,3.512-7.845,7.845-7.845
		c4.332,0,7.845,3.512,7.845,7.845v16.309C205.034,282.301,201.523,285.813,197.19,285.813z"/>
	<path style="fill:#313344;" d="M318.431,285.813c-4.332,0-7.845-3.512-7.845-7.845V261.66c0-4.332,3.512-7.845,7.845-7.845
		c4.332,0,7.845,3.512,7.845,7.845v16.309C326.275,282.301,322.763,285.813,318.431,285.813z"/>
</g>
<path style="fill:#CE5B6C;" d="M257.811,342.24c-10.92,0-21.186-4.252-28.907-11.974c-3.064-3.064-3.064-8.031,0-11.094
	c3.064-3.064,8.031-3.064,11.094,0c4.758,4.758,11.084,7.378,17.813,7.378c6.729,0,13.055-2.62,17.813-7.378
	c3.064-3.064,8.031-3.065,11.093,0c3.064,3.064,3.064,8.03,0,11.094C278.996,337.987,268.73,342.24,257.811,342.24z"/>
<g>
	<path style="fill:#FCD4B4;" d="M421.778,50.225h-28.24c-4.332,0-7.845-3.512-7.845-7.845s3.512-7.845,7.845-7.845h28.24
		c4.332,0,7.845,3.512,7.845,7.845S426.111,50.225,421.778,50.225z"/>
	<path style="fill:#FCD4B4;" d="M383.069,24.208c-3.708,0-7.005-2.64-7.705-6.418c-0.789-4.26,2.025-8.353,6.285-9.142l28.24-5.23
		c4.259-0.788,8.353,2.025,9.142,6.285s-2.025,8.353-6.285,9.142l-28.24,5.23C384.024,24.164,383.544,24.208,383.069,24.208z"/>
	<path style="fill:#FCD4B4;" d="M411.327,81.475c-0.474,0-0.954-0.044-1.437-0.133l-28.24-5.23c-4.26-0.789-7.074-4.882-6.285-9.142
		c0.789-4.26,4.88-7.072,9.142-6.285l28.24,5.23c4.26,0.789,7.074,4.882,6.285,9.142C418.332,78.835,415.034,81.475,411.327,81.475z
		"/>
	<path style="fill:#FCD4B4;" d="M118.461,50.225h-28.24c-4.332,0-7.845-3.512-7.845-7.845s3.512-7.845,7.845-7.845h28.24
		c4.332,0,7.845,3.512,7.845,7.845S122.793,50.225,118.461,50.225z"/>
	<path style="fill:#FCD4B4;" d="M128.93,24.208c-0.474,0-0.954-0.044-1.437-0.133l-28.24-5.23c-4.26-0.789-7.074-4.882-6.285-9.142
		c0.789-4.26,4.882-7.074,9.142-6.285l28.24,5.23c4.26,0.789,7.074,4.882,6.285,9.142C135.935,21.567,132.638,24.208,128.93,24.208z
		"/>
	<path style="fill:#FCD4B4;" d="M100.673,81.475c-3.708,0-7.005-2.64-7.705-6.418c-0.789-4.26,2.025-8.353,6.285-9.142l28.24-5.23
		c4.258-0.788,8.352,2.025,9.142,6.285c0.789,4.26-2.025,8.353-6.285,9.142l-28.24,5.23
		C101.628,81.433,101.147,81.475,100.673,81.475z"/>
</g>
<g>
	<ellipse style="fill:#FCB997;" cx="337.324" cy="306.991" rx="17.258" ry="10.46"/>
	<ellipse style="fill:#FCB997;" cx="174.676" cy="306.991" rx="17.258" ry="10.46"/>
</g>
<g>
</g>
<g>
</g>
<g>
</g>
<g>
</g>
<g>
</g>
<g>
</g>
<g>
</g>
<g>
</g>
<g>
</g>
<g>
</g>
<g>
</g>
<g>
</g>
<g>
</g>
<g>
</g>
<g>
</g>
</svg>
