<?xml version="1.0" encoding="iso-8859-1"?>
<!-- Generator: Adobe Illustrator 19.0.0, SVG Export Plug-In . SVG Version: 6.00 Build 0)  -->
<svg version="1.1" id="Capa_1" xmlns="http://www.w3.org/2000/svg" xmlns:xlink="http://www.w3.org/1999/xlink" x="0px" y="0px"
	 viewBox="0 0 472 472" style="enable-background:new 0 0 472 472;" xml:space="preserve">
<path style="fill:#86B2BC;" d="M420,384H52c-26.512,0-48,21.488-48,48v40h464v-40C468,405.488,446.512,384,420,384z"/>
<path style="fill:#7AA1AB;" d="M468,432c0-26.512-21.488-48-48-48H236v88h232V432z"/>
<path style="fill:#EFE1D3;" d="M236,424l64-40l0,0v-47.144c0,0-0.008,0-0.016,0.008c-4.384,2.184-8.896,4.128-13.52,5.864
	c-0.92,0.352-1.848,0.688-2.784,1.016c-2.944,1.032-5.92,1.984-8.952,2.832c-2.336,0.664-4.688,1.272-7.064,1.816
	c-1.576,0.352-3.16,0.704-4.76,1c-3.656,0.704-7.36,1.28-11.12,1.696c-0.92,0.104-1.848,0.168-2.776,0.248
	C244.728,351.736,240.4,352,236,352s-8.728-0.264-13.024-0.656c-0.928-0.08-1.856-0.152-2.776-0.248
	c-3.752-0.416-7.456-0.992-11.12-1.696c-1.6-0.304-3.176-0.648-4.76-1c-2.384-0.544-4.736-1.16-7.064-1.816
	c-3.032-0.848-6.008-1.8-8.952-2.832c-0.928-0.328-1.856-0.672-2.784-1.016c-4.624-1.736-9.136-3.68-13.52-5.864h-0.008L172,384l0,0
	L236,424z"/>
<polygon style="fill:#E6D8CA;" points="172.016,352 236,376 300,351.136 300,328 172,328 "/>
<g>
	<path style="fill:#F9EDE0;" d="M379.592,216H380v-8C380,210.704,379.744,213.336,379.592,216z"/>
	<path style="fill:#F9EDE0;" d="M92,216h0.408c-0.152-2.664-0.408-5.296-0.408-8V216z"/>
	<path style="fill:#F9EDE0;" d="M177.792,12.352c2.584-1.152,5.248-2.144,7.904-3.144C183.032,10.208,180.376,11.208,177.792,12.352
		z"/>
	<path style="fill:#F9EDE0;" d="M249.568,0.688c1.632,0.152,3.24,0.416,4.856,0.624C252.808,1.104,251.208,0.84,249.568,0.688z"/>
	<path style="fill:#F9EDE0;" d="M262.616,2.56c2.032,0.384,4.032,0.832,6.032,1.296C266.648,3.392,264.648,2.936,262.616,2.56z"/>
	<path style="fill:#F9EDE0;" d="M274.976,5.488c2.296,0.648,4.584,1.32,6.832,2.08C279.56,6.816,277.28,6.136,274.976,5.488z"/>
	<path style="fill:#F9EDE0;" d="M286.304,9.216c2.656,1,5.32,1.992,7.904,3.144C291.624,11.208,288.968,10.208,286.304,9.216z"/>
</g>
<path style="fill:#8C8A85;" d="M188.312,343.744c2.936,1.04,5.928,1.976,8.952,2.832c2.336,0.656,4.68,1.28,7.064,1.816
	c1.576,0.36,3.16,0.696,4.76,1c3.664,0.696,7.36,1.288,11.12,1.696c0.92,0.104,1.848,0.168,2.776,0.248
	C227.272,351.728,231.608,352,236,352s8.728-0.272,13.024-0.656c0.928-0.088,1.856-0.144,2.776-0.248
	c3.752-0.408,7.456-1,11.12-1.696c1.592-0.304,3.184-0.64,4.76-1c2.384-0.536,4.728-1.168,7.064-1.816
	c3.024-0.856,6.008-1.792,8.952-2.832c0.936-0.328,1.856-0.672,2.784-1.016c4.616-1.744,9.136-3.688,13.52-5.864
	c45.112-22.448,76.68-67.776,79.608-120.864H372c-17.672,0-32,14.328-32,32s-14.328,32-32,32h-24c0-17.672-14.328-32-32-32h-32
	c-17.672,0-32,14.328-32,32h-24c-17.672,0-32-14.328-32-32s-14.328-32-32-32h-7.592c2.928,53.08,34.496,98.408,79.608,120.864
	c4.384,2.184,8.904,4.12,13.52,5.864C186.456,343.072,187.376,343.416,188.312,343.744z"/>
<g>
	<path style="fill:#F9EDE0;" d="M203.352,3.856c2-0.472,4-0.92,6.032-1.296C207.352,2.936,205.352,3.392,203.352,3.856z"/>
	<path style="fill:#F9EDE0;" d="M190.192,7.568c2.248-0.76,4.536-1.432,6.832-2.08C194.72,6.136,192.44,6.816,190.192,7.568z"/>
	<path style="fill:#F9EDE0;" d="M132,248c0,17.672,14.328,32,32,32h24c0-17.672,14.328-32,32-32h32c17.672,0,32,14.328,32,32h24
		c17.672,0,32-14.328,32-32s14.328-32,32-32h7.592c0.152-2.664,0.408-5.296,0.408-8v-56v-8c0-58.712-35.192-109.128-85.584-131.544
		c10.608,4.744,20.544,10.728,29.624,17.768C309.264,64.216,275.424,88,236,88s-73.264-23.784-88.04-57.776
		c9.08-7.04,19.016-13.024,29.624-17.768C127.192,34.872,92,85.288,92,144v8v56c0,2.704,0.256,5.336,0.408,8H100
		C117.672,216,132,230.328,132,248z"/>
	<path style="fill:#F9EDE0;" d="M217.568,1.312c1.616-0.208,3.224-0.472,4.856-0.624C220.792,0.84,219.192,1.104,217.568,1.312z"/>
</g>
<g>
	<path style="fill:#EFE1D3;" d="M92,152H76c-17.672,0-32,14.328-32,32s14.328,32,32,32h16v-8V152z"/>
	<path style="fill:#EFE1D3;" d="M380,216h16c17.672,0,32-14.328,32-32s-14.328-32-32-32h-16v56V216z"/>
</g>
<g>
	<path style="fill:#F9EDE0;" d="M197.024,5.488c2.096-0.584,4.2-1.136,6.328-1.624C201.224,4.36,199.112,4.896,197.024,5.488z"/>
	<path style="fill:#F9EDE0;" d="M177.584,12.456c0.072-0.032,0.144-0.072,0.216-0.104C177.72,12.384,177.656,12.424,177.584,12.456z
		"/>
	<path style="fill:#F9EDE0;" d="M185.696,9.216c1.496-0.56,2.976-1.136,4.496-1.648C188.672,8.08,187.192,8.648,185.696,9.216z"/>
	<path style="fill:#F9EDE0;" d="M209.384,2.56c2.696-0.504,5.44-0.896,8.184-1.248C214.824,1.664,212.08,2.048,209.384,2.56z"/>
	<path style="fill:#F9EDE0;" d="M254.432,1.312c2.752,0.352,5.488,0.744,8.184,1.248C259.92,2.048,257.176,1.664,254.432,1.312z"/>
	<path style="fill:#F9EDE0;" d="M294.208,12.352c0.072,0.032,0.144,0.072,0.216,0.104C294.344,12.424,294.28,12.384,294.208,12.352z
		"/>
	<path style="fill:#F9EDE0;" d="M268.648,3.856c2.128,0.496,4.24,1.04,6.328,1.624C272.888,4.896,270.776,4.36,268.648,3.856z"/>
	<path style="fill:#F9EDE0;" d="M236,0c4.584,0,9.096,0.264,13.568,0.688C245.096,0.264,240.584,0,236,0z"/>
	<path style="fill:#F9EDE0;" d="M222.432,0.688C226.904,0.264,231.416,0,236,0C231.416,0,226.904,0.264,222.432,0.688z"/>
	<path style="fill:#F9EDE0;" d="M281.808,7.568c1.52,0.512,3,1.088,4.496,1.648C284.808,8.648,283.328,8.08,281.808,7.568z"/>
</g>
<path style="fill:#8C8A85;" d="M236,88c39.424,0,73.264-23.784,88.04-57.776c-9.08-7.04-19.016-13.024-29.624-17.768
	c-0.072-0.032-0.144-0.072-0.216-0.104c-2.584-1.152-5.248-2.144-7.904-3.144c-1.496-0.56-2.976-1.136-4.496-1.648
	c-2.248-0.76-4.536-1.432-6.832-2.08c-2.096-0.584-4.2-1.136-6.328-1.624c-2-0.472-4-0.92-6.032-1.296
	c-2.696-0.504-5.44-0.896-8.184-1.248c-1.616-0.208-3.224-0.472-4.856-0.624C245.096,0.264,240.584,0,236,0
	s-9.096,0.264-13.568,0.688c-1.632,0.152-3.24,0.416-4.856,0.624c-2.752,0.352-5.488,0.744-8.184,1.248
	c-2.032,0.384-4.032,0.832-6.032,1.296c-2.128,0.496-4.24,1.04-6.328,1.624c-2.296,0.648-4.584,1.32-6.832,2.08
	c-1.52,0.512-3,1.088-4.496,1.648c-2.656,1-5.32,1.992-7.904,3.144c-0.072,0.032-0.144,0.072-0.216,0.104
	C166.976,17.2,157.04,23.184,147.96,30.224C162.736,64.216,196.576,88,236,88z"/>
<g>
	<circle style="fill:#4B413A;" cx="180" cy="184" r="16"/>
	<circle style="fill:#4B413A;" cx="292" cy="184" r="16"/>
</g>
<g>
	<ellipse style="fill:#F7CDBF;" cx="168" cy="228" rx="20" ry="12"/>
	<ellipse style="fill:#F7CDBF;" cx="304" cy="228" rx="20" ry="12"/>
</g>
<g>
</g>
<g>
</g>
<g>
</g>
<g>
</g>
<g>
</g>
<g>
</g>
<g>
</g>
<g>
</g>
<g>
</g>
<g>
</g>
<g>
</g>
<g>
</g>
<g>
</g>
<g>
</g>
<g>
</g>
</svg>
