<svg height="512" viewBox="0 0 128 128" width="512" xmlns="http://www.w3.org/2000/svg"><g><g><path d="m87.371 23.835a64.012 64.012 0 0 1 -48.393 7.771v8.963a22.243 22.243 0 0 0 .5 4.675l1.509 6.891c.788 3.611 1.317 7.464 2.71 10.9a21.93 21.93 0 0 0 40.606 0c1.393-3.438 1.922-7.291 2.709-10.9l1.51-6.891c.331-1.539.5-3.107.5-11.68v-10.747z" fill="#fde4e4"/><g fill="#596c76"><path d="m38.05 39.19a6.9 6.9 0 0 1 .926.07v1.306a21.889 21.889 0 0 0 .308 3.642 22.1 22.1 0 0 1 -.306-3.639v-8.963a64.012 64.012 0 0 0 48.393-7.771l1.651-1.018v10.747c0 6.166-.088 8.7-.261 10.217a21.762 21.762 0 0 0 .261-3.212v-1.328a6.3 6.3 0 0 1 .678-.051 6.786 6.786 0 0 1 4.8 1.981v-8.923a30.5 30.5 0 0 0 -61 0v8.7a6.78 6.78 0 0 1 4.55-1.758z"/><path d="m94.45 50.873a6.739 6.739 0 0 1 -7.458 1.358c-.776 3.584-1.309 7.4-2.689 10.806a21.872 21.872 0 0 1 -7.303 9.355l1.1 8.576a6.753 6.753 0 0 0 .769 2.333 7.716 7.716 0 0 0 .685 1.053c1.972 2.57 4.821 2.677 7.247 3.021 2.145.237 4.325.353 6.439.538a54.99 54.99 0 0 1 9.764 1.3 22.422 22.422 0 0 1 11.621 7.687v-8.31a21.561 21.561 0 0 0 -10.088-18.255 21.559 21.559 0 0 1 -10.087-18.251z"/><path d="m25 89.217c5.453-1.491 11.249-1.3 16.859-1.948a8.366 8.366 0 0 0 6.557-2.928 6.882 6.882 0 0 0 1.489-3.373l1.095-8.576a21.878 21.878 0 0 1 -7.3-9.355c-1.393-3.438-1.922-7.291-2.71-10.9l-.771-3.525.769 3.527a6.768 6.768 0 0 1 -7.438-1.039v.983a21.558 21.558 0 0 1 -10.088 18.255 21.562 21.562 0 0 0 -10.087 18.255v8.307a22.422 22.422 0 0 1 11.625-7.683z"/></g><path d="m39.481 45.243a21.885 21.885 0 0 1 -.505-4.677v-1.306a6.9 6.9 0 0 0 -.926-.07 6.81 6.81 0 1 0 2.935 12.947z" fill="#fcced3"/><g fill="#596c76"><path d="m64.249 53.4h1.958a1.75 1.75 0 0 0 0-3.5h-1.877l.7-4.608a1.75 1.75 0 1 0 -3.461-.523l-.709 4.686a3.43 3.43 0 0 0 3.389 3.945z"/><path d="m57.166 40.418a4.167 4.167 0 1 0 -4.166 4.167 4.171 4.171 0 0 0 4.166-4.167z"/><path d="m75 36.252a4.167 4.167 0 1 0 4.167 4.166 4.171 4.171 0 0 0 -4.167-4.166z"/><path d="m69.2 57.933a6.987 6.987 0 0 1 -5.325 2.067 6.987 6.987 0 0 1 -5.326-2.07 1.749 1.749 0 1 0 -2.7 2.224 10.373 10.373 0 0 0 8.026 3.346 10.368 10.368 0 0 0 8.025-3.343 1.749 1.749 0 1 0 -2.7-2.224z"/></g><path d="m89.7 39.19a6.3 6.3 0 0 0 -.678.051v1.328a22.243 22.243 0 0 1 -.5 4.675l-1.51 6.891-.021.1a6.8 6.8 0 1 0 2.709-13.045z" fill="#fcced3"/><path d="m63.874 102.752s13.574-7.313 19.026-16.089a6.606 6.606 0 0 1 -3.345-2.309 7.716 7.716 0 0 1 -.685-1.053 6.753 6.753 0 0 1 -.769-2.333l-1.101-8.576a21.855 21.855 0 0 1 -26 0l-1.1 8.576a6.882 6.882 0 0 1 -1.489 3.373 7.691 7.691 0 0 1 -3.506 2.411c5.489 8.737 18.969 16 18.969 16z" fill="#fcced3"/><path d="m86.8 87.375a22.856 22.856 0 0 1 -3.9-.712c-5.447 8.776-19.021 16.089-19.021 16.089s-13.48-7.263-18.964-16a9.849 9.849 0 0 1 -3.051.517c-.955.11-1.917.192-2.881.266v38.717h50.039v-38.678c-.743-.061-1.487-.117-2.222-.199z" fill="#979fef"/><g fill="#737ee6"><path d="m25 89.217a22.423 22.423 0 0 0 -16.5 21.617v15.418h30.478v-38.717c-4.695.365-9.454.445-13.978 1.682z"/><path d="m119.5 110.834a22.423 22.423 0 0 0 -16.5-21.617 54.99 54.99 0 0 0 -9.764-1.3c-1.386-.121-2.8-.224-4.214-.339v38.678h30.478z"/></g></g><g><path d="m64.249 53.4h1.958a1.75 1.75 0 0 0 0-3.5h-1.877l.7-4.607a1.75 1.75 0 1 0 -3.461-.523l-.709 4.685a3.43 3.43 0 0 0 3.389 3.945z"/><path d="m57.167 40.419a4.167 4.167 0 1 0 -4.167 4.166 4.171 4.171 0 0 0 4.167-4.166z"/><path d="m70.833 40.419a4.167 4.167 0 1 0 4.167-4.167 4.171 4.171 0 0 0 -4.167 4.167z"/><path d="m56.085 57.693a1.749 1.749 0 0 0 -.237 2.463 10.373 10.373 0 0 0 8.027 3.344 10.368 10.368 0 0 0 8.025-3.343 1.749 1.749 0 1 0 -2.7-2.224 6.987 6.987 0 0 1 -5.325 2.067 6.987 6.987 0 0 1 -5.326-2.07 1.75 1.75 0 0 0 -2.464-.237z"/><path d="m67.955 33.512a1.783 1.783 0 0 0 .389-.043c1.5-.34 3-.737 4.463-1.179a1.75 1.75 0 0 0 -1.007-3.35c-1.385.418-2.806.793-4.225 1.115a1.75 1.75 0 0 0 .385 3.457z"/><path d="m116.374 96.314v-7.722a23.182 23.182 0 0 0 -10.906-19.736 19.7 19.7 0 0 1 -9.268-16.772v-.531a8.521 8.521 0 0 0 .05-11.052v-8.252a32.25 32.25 0 0 0 -64.5 0v7.977a8.51 8.51 0 0 0 .051 11.6v.256a19.7 19.7 0 0 1 -9.269 16.772 23.185 23.185 0 0 0 -10.906 19.738v7.722a24.118 24.118 0 0 0 -4.875 14.519v15.417a1.75 1.75 0 0 0 1.749 1.75h111a1.749 1.749 0 0 0 1.75-1.75v-15.417a24.118 24.118 0 0 0 -4.876-14.519zm-12.769-24.495a19.7 19.7 0 0 1 9.269 16.773v3.99a24.025 24.025 0 0 0 -9.413-5.053 45.833 45.833 0 0 0 -8.5-1.229c-.523-.042-1.048-.085-1.568-.13-.883-.078-1.778-.148-2.677-.218l-1.547-.123-.319-.029c-.622-.051-1.245-.1-1.808-.161l-.752-.1a16.119 16.119 0 0 1 -2.856-.539 4.877 4.877 0 0 1 -2.5-1.711 6.093 6.093 0 0 1 -.531-.814 5.018 5.018 0 0 1 -.574-1.726l-.966-7.551a23.63 23.63 0 0 0 7.06-9.5 46.7 46.7 0 0 0 2.257-8.54c.048-.242.1-.479.147-.72a8.28 8.28 0 0 0 1.37.125 8.52 8.52 0 0 0 3.084-.584 23.164 23.164 0 0 0 10.824 17.84zm-8.846-25.819a5.066 5.066 0 0 1 -5.06 5.059 4.873 4.873 0 0 1 -.648-.059l1.181-5.39a23.348 23.348 0 0 0 .457-4.572 5.067 5.067 0 0 1 4.07 4.962zm-30.759-42.5a28.782 28.782 0 0 1 28.749 28.749v5.763a8.5 8.5 0 0 0 -1.993-.5c.01-1.129.015-2.425.015-3.948v-10.747a1.75 1.75 0 0 0 -2.671-1.489l-1.65 1.018c-1.6.987-3.263 1.91-4.935 2.741a1.75 1.75 0 1 0 1.558 3.135c1.416-.7 2.823-1.47 4.2-2.282v7.625c0 8.553-.173 9.979-.459 11.3l-1.514 6.897-.021.1v.006c-.185.858-.359 1.728-.531 2.6a44.054 44.054 0 0 1 -2.066 7.9 20.12 20.12 0 0 1 -6.51 8.478 1.722 1.722 0 0 0 -.376.273 20.209 20.209 0 0 1 -23.592 0 1.766 1.766 0 0 0 -.377-.274 20.1 20.1 0 0 1 -6.508-8.474 44.088 44.088 0 0 1 -2.067-7.9c-.18-.914-.359-1.823-.555-2.718l-1.507-6.877a20.511 20.511 0 0 1 -.462-4.306v-6.787a65.566 65.566 0 0 0 16.563 1.217 1.749 1.749 0 1 0 -.186-3.494 62.518 62.518 0 0 1 -17.722-1.6 1.75 1.75 0 0 0 -2.155 1.7v5.876a8.452 8.452 0 0 0 -1.978.439v-5.672a28.782 28.782 0 0 1 28.75-28.749zm-31.008 42.5a5.054 5.054 0 0 1 4.249-4.978 24.023 24.023 0 0 0 .528 4.6l1.172 5.353a4.991 4.991 0 0 1 -.89.088 5.065 5.065 0 0 1 -5.059-5.063zm-8.6 25.819a23.159 23.159 0 0 0 10.816-17.756 8.234 8.234 0 0 0 4.455.331c.051.255.105.506.156.763a46.586 46.586 0 0 0 2.258 8.54 23.617 23.617 0 0 0 7.058 9.5l-.964 7.532a5.107 5.107 0 0 1 -1.113 2.51 6 6 0 0 1 -2.718 1.861 8.178 8.178 0 0 1 -2.51.421 1.581 1.581 0 0 0 -.169.011c-.933.108-1.873.187-2.815.259-.905.07-1.812.129-2.719.189a57.961 57.961 0 0 0 -11.585 1.55 24.037 24.037 0 0 0 -9.414 5.054v-3.99a19.706 19.706 0 0 1 9.266-16.775zm-14.141 39.014a20.707 20.707 0 0 1 15.211-19.928 54.442 54.442 0 0 1 10.89-1.435l.875-.058v35.088h-26.976zm30.477-21.688c.418-.04.835-.081 1.25-.128a12.2 12.2 0 0 0 2.173-.255 39.235 39.235 0 0 0 6.407 6.864 1.75 1.75 0 0 0 2.291-2.647 37.4 37.4 0 0 1 -5.334-5.543 9.159 9.159 0 0 0 2.26-1.993 8.628 8.628 0 0 0 1.866-4.253l.74-5.791a23.8 23.8 0 0 0 23.237 0l.74 5.791a8.479 8.479 0 0 0 .966 2.941 9.414 9.414 0 0 0 .837 1.287 8.15 8.15 0 0 0 2.124 1.952c-4.8 6.368-13.668 11.786-16.412 13.372-.737-.425-1.914-1.125-3.327-2.04a1.75 1.75 0 1 0 -1.9 2.938c2.543 1.647 4.325 2.611 4.4 2.651a1.751 1.751 0 0 0 1.661 0c.548-.3 12.986-7.065 18.961-15.629.754.158 1.493.261 2.172.349l.767.1c.222.025.444.047.666.068v35.321h-46.545zm77.021 35.355h-26.978v-35.033c.776.061 1.547.122 2.312.189.53.047 1.061.089 1.594.132a42.609 42.609 0 0 1 7.86 1.117 20.707 20.707 0 0 1 15.212 19.928z"/></g></g></svg>