<svg id="Filled_stroke_cutting_expand" height="512" viewBox="0 0 512 512" width="512" xmlns="http://www.w3.org/2000/svg" data-name="Filled stroke cutting expand"><g><g><path d="m64 488v-107.478a30 30 0 0 1 19.127-27.96l124.873-48.562h96l124.873 48.562a30 30 0 0 1 19.127 27.96v107.478z" fill="#fa5d3f"/><path d="m184.042 349.319a51.864 51.864 0 0 0 39.922 18.681h64.072a52.017 52.017 0 0 0 51.969-50l-36-14h-96.005l-36 14a51.849 51.849 0 0 0 12.042 31.319z" fill="#fed672"/><path d="m288.036 336h-64.072a20 20 0 0 1 -19.677-23.578l11.713-64.422h80l11.713 64.422a20 20 0 0 1 -19.677 23.578z" fill="#ffd4cf"/><path d="m296 248h-80l-3.874 21.309 11.911 10.122a36.034 36.034 0 0 0 23.314 8.569h17.249a36.022 36.022 0 0 0 23.428-8.667l11.826-10.133z" fill="#fbb8b0"/><g fill="#ffd4cf"><path d="m184 104v111.159a20 20 0 0 0 7.048 15.24l43.352 36.841a20 20 0 0 0 12.951 4.76h17.249a20 20 0 0 0 13.015-4.815l43.4-37.2a20 20 0 0 0 6.985-15.185v-110.8z"/><path d="m152 136h22a10 10 0 0 1 10 10v28a10 10 0 0 1 -10 10h-22a0 0 0 0 1 0 0v-48a0 0 0 0 1 0 0z" transform="matrix(-1 0 0 -1 336 320)"/><path d="m338 136h22a0 0 0 0 1 0 0v48a0 0 0 0 1 0 0h-22a10 10 0 0 1 -10-10v-28a10 10 0 0 1 10-10z" transform="matrix(-1 0 0 -1 688 320)"/></g></g><path d="m128 432h256v56h-256z" fill="#fed672"/></g><path d="m304 24h-96a40 40 0 0 0 -40 40v32l16 16h24l16-24 24 24h96v-48a40 40 0 0 0 -40-40z" fill="#804913"/><g><path d="m440 480h-48v-48a8 8 0 0 0 -8-8h-256a8 8 0 0 0 -8 8v48h-48v-99.478a21.863 21.863 0 0 1 14.026-20.5l20.874-8.122-5.8-14.912-20.874 8.118a37.764 37.764 0 0 0 -24.226 35.416v107.478a8 8 0 0 0 8 8h384a8 8 0 0 0 8-8v-64h-16zm-304 0v-40h240v40z"/><path d="m431.773 345.106-88.855-34.555h-.013l-29.486-11.467-8.187-45.027 20.99-17.991a27.968 27.968 0 0 0 9.778-21.266v-22.8h14a18.021 18.021 0 0 0 18-18v-28a18.021 18.021 0 0 0 -18-18h-14v-8h8a8 8 0 0 0 8-8v-48a48.055 48.055 0 0 0 -48-48h-80v16h80a32.036 32.036 0 0 1 32 32v40h-84.687l-21.656-21.657a8 8 0 0 0 -12.313 1.219l-13.625 20.438h-16.406l-11.313-11.313v-28.687a32.036 32.036 0 0 1 32-32v-16a48.055 48.055 0 0 0 -48 48v32a8 8 0 0 0 2.343 5.657l13.657 13.656v12.687h-14a18.021 18.021 0 0 0 -18 18v28a18.021 18.021 0 0 0 18 18h14v23.159a27.956 27.956 0 0 0 9.868 21.336l20.868 17.734-8.155 44.85-29.481 11.467h-.01l-51.99 20.22 5.8 14.912 42.523-16.536a60 60 0 0 0 58.541 46.858h64.072a60 60 0 0 0 58.542-46.858l79.4 30.876a21.863 21.863 0 0 1 14.022 20.504v27.478h16v-27.478a37.764 37.764 0 0 0 -24.227-35.416zm-81.773-201.106a2 2 0 0 1 2 2v28a2 2 0 0 1 -2 2h-14v-32zm-188 32a2 2 0 0 1 -2-2v-28a2 2 0 0 1 2-2h14v32zm30 39.159v-95.159h16a8 8 0 0 0 6.656-3.562l10.587-15.881 17.1 17.1a8 8 0 0 0 5.657 2.343h72v94.8a11.982 11.982 0 0 1 -4.191 9.111l-43.4 37.2a12.008 12.008 0 0 1 -7.809 2.889h-17.249a12.009 12.009 0 0 1 -7.771-2.856l-43.351-36.844a11.979 11.979 0 0 1 -4.229-9.141zm37.218 58.176a28.025 28.025 0 0 0 18.133 6.665h17.249a28.019 28.019 0 0 0 18.222-6.741l8.338-7.147 8.68 47.742a12 12 0 0 1 -11.804 14.146h-64.072a12 12 0 0 1 -11.806-14.146l8.664-47.654zm92.6 70.858a43.882 43.882 0 0 1 -33.782 15.807h-64.072a44.056 44.056 0 0 1 -43.417-36.74l15.441-6a28.008 28.008 0 0 0 27.976 26.74h64.072a28.008 28.008 0 0 0 27.976-26.745l15.441 6a43.573 43.573 0 0 1 -9.637 20.938z"/><path d="m280 144h16v24h-16z"/><path d="m216 144h16v24h-16z"/><path d="m264 232a24 24 0 0 0 24-24h-64a24 24 0 0 0 24 24z"/></g></svg>